<mxfile host="app.diagrams.net" modified="2023-11-23T14:26:34.710Z" agent="Mozilla/5.0 (Macintosh; Intel Mac OS X 10_15_7) AppleWebKit/537.36 (KHTML, like Gecko) Chrome/119.0.0.0 Safari/537.36" etag="IJpuhJTQ9nWVRs2yBTgc" version="22.1.3" type="github">
  <diagram id="ADD6Pf1-iYHw3PYcDzVL" name="第 1 页">
    <mxGraphModel dx="2170" dy="-887" grid="1" gridSize="10" guides="1" tooltips="1" connect="1" arrows="1" fold="1" page="1" pageScale="1" pageWidth="827" pageHeight="1169" math="1" shadow="0">
      <root>
        <mxCell id="0" />
        <mxCell id="1" parent="0" />
        <mxCell id="jL-DoHjZgoJ6Cv4gA63--163" value="" style="rounded=1;whiteSpace=wrap;html=1;strokeWidth=1;fillWeight=4;hachureGap=8;hachureAngle=45;sketch=0;fontFamily=Times New Roman;fontSize=14;shadow=0;glass=0;fillColor=#fff2cc;strokeColor=#d6b656;textOpacity=30;" parent="1" vertex="1">
          <mxGeometry x="745.72" y="1779.72" width="64.06" height="24.95" as="geometry" />
        </mxCell>
        <mxCell id="jL-DoHjZgoJ6Cv4gA63--19" style="edgeStyle=orthogonalEdgeStyle;rounded=0;orthogonalLoop=1;jettySize=auto;html=1;exitX=0.5;exitY=0;exitDx=0;exitDy=0;entryX=0.5;entryY=1;entryDx=0;entryDy=0;strokeWidth=1;fontSize=18;fontFamily=Times New Roman;" parent="1" source="jL-DoHjZgoJ6Cv4gA63--20" edge="1">
          <mxGeometry relative="1" as="geometry">
            <mxPoint x="777.75" y="1804.5800000000002" as="targetPoint" />
          </mxGeometry>
        </mxCell>
        <mxCell id="jL-DoHjZgoJ6Cv4gA63--20" value="" style="rounded=0;whiteSpace=wrap;html=1;fontSize=11;fillColor=#dae8fc;strokeColor=#6c8ebf;fontFamily=Times New Roman;strokeWidth=0.5;" parent="1" vertex="1">
          <mxGeometry x="751.25" y="1831.8300000000002" width="53" height="17" as="geometry" />
        </mxCell>
        <mxCell id="jL-DoHjZgoJ6Cv4gA63--21" style="edgeStyle=orthogonalEdgeStyle;rounded=0;orthogonalLoop=1;jettySize=auto;html=1;entryX=0.5;entryY=1;entryDx=0;entryDy=0;strokeColor=#000000;strokeWidth=1;fontFamily=Times New Roman;fontSize=12;fontColor=#EA6B66;exitX=0.372;exitY=0;exitDx=0;exitDy=0;exitPerimeter=0;" parent="1" source="jL-DoHjZgoJ6Cv4gA63--114" target="jL-DoHjZgoJ6Cv4gA63--20" edge="1">
          <mxGeometry relative="1" as="geometry">
            <mxPoint x="778.75" y="1869.5800000000002" as="sourcePoint" />
            <mxPoint x="778.6499999999996" y="1845.584" as="targetPoint" />
          </mxGeometry>
        </mxCell>
        <mxCell id="jL-DoHjZgoJ6Cv4gA63--22" style="edgeStyle=orthogonalEdgeStyle;rounded=0;orthogonalLoop=1;jettySize=auto;html=1;strokeColor=#000000;strokeWidth=1;fontFamily=Times New Roman;fontSize=11;fontColor=#000000;entryX=-0.009;entryY=0.497;entryDx=0;entryDy=0;entryPerimeter=0;" parent="1" target="jL-DoHjZgoJ6Cv4gA63--24" edge="1">
          <mxGeometry relative="1" as="geometry">
            <mxPoint x="810.2355172413791" y="1792.3206896551726" as="sourcePoint" />
            <mxPoint x="840" y="1792.7" as="targetPoint" />
          </mxGeometry>
        </mxCell>
        <mxCell id="jL-DoHjZgoJ6Cv4gA63--24" value="0.91" style="text;html=1;align=center;verticalAlign=middle;resizable=0;points=[];autosize=1;fontSize=13;fontFamily=Times New Roman;spacingRight=-5;fillColor=#f5f5f5;fontColor=#333333;strokeColor=#666666;rounded=1;sketch=1;" parent="1" vertex="1">
          <mxGeometry x="849" y="1777.68" width="40" height="30" as="geometry" />
        </mxCell>
        <mxCell id="jL-DoHjZgoJ6Cv4gA63--73" value="" style="group;fontFamily=Times New Roman;" parent="1" vertex="1" connectable="0">
          <mxGeometry x="673" y="1967.52" width="260" height="75" as="geometry" />
        </mxCell>
        <mxCell id="jL-DoHjZgoJ6Cv4gA63--116" value="Source Encoder" style="rounded=1;whiteSpace=wrap;html=1;fontSize=15;fillColor=#dae8fc;strokeColor=#6c8ebf;strokeWidth=0.5;fillStyle=auto;fontFamily=Times New Roman;opacity=70;" parent="1" vertex="1">
          <mxGeometry x="681" y="1982.7" width="260" height="34" as="geometry" />
        </mxCell>
        <mxCell id="jL-DoHjZgoJ6Cv4gA63--135" style="edgeStyle=orthogonalEdgeStyle;rounded=0;orthogonalLoop=1;jettySize=auto;html=1;exitX=0;exitY=0.5;exitDx=0;exitDy=0;entryX=0;entryY=0.5;entryDx=0;entryDy=0;fontFamily=Times New Roman;fontSize=10;fontColor=#000000;endArrow=ERzeroToMany;endFill=0;fillColor=#dae8fc;strokeColor=#6c8ebf;" parent="1" source="jL-DoHjZgoJ6Cv4gA63--114" target="jL-DoHjZgoJ6Cv4gA63--116" edge="1">
          <mxGeometry relative="1" as="geometry">
            <Array as="points">
              <mxPoint x="655" y="1906.7" />
              <mxPoint x="655" y="1991.7" />
            </Array>
          </mxGeometry>
        </mxCell>
        <mxCell id="jL-DoHjZgoJ6Cv4gA63--136" value="Cross-lingual&lt;br style=&quot;font-size: 14px;&quot;&gt;Attention" style="edgeLabel;html=1;align=center;verticalAlign=middle;resizable=0;points=[];fontSize=14;rotation=-90;labelBackgroundColor=none;fontFamily=Times New Roman;" parent="jL-DoHjZgoJ6Cv4gA63--135" vertex="1" connectable="0">
          <mxGeometry x="0.0076" y="2" relative="1" as="geometry">
            <mxPoint x="-4" y="-3" as="offset" />
          </mxGeometry>
        </mxCell>
        <mxCell id="jL-DoHjZgoJ6Cv4gA63--137" value="&lt;font style=&quot;font-size: 13px;&quot;&gt;And&lt;/font&gt;" style="rounded=0;whiteSpace=wrap;html=1;fontFamily=Times New Roman;fontSize=13;strokeColor=none;spacingBottom=-10;spacing=-10;spacingTop=-10;fillColor=none;" parent="1" vertex="1">
          <mxGeometry x="685" y="1964.7" width="50" height="12" as="geometry" />
        </mxCell>
        <mxCell id="jL-DoHjZgoJ6Cv4gA63--138" style="edgeStyle=orthogonalEdgeStyle;rounded=0;orthogonalLoop=1;jettySize=auto;html=1;entryX=0.365;entryY=0.995;entryDx=0;entryDy=0;entryPerimeter=0;fontFamily=Times New Roman;endArrow=classic;endFill=1;" parent="1" edge="1">
          <mxGeometry relative="1" as="geometry">
            <mxPoint x="780" y="1971.7" as="sourcePoint" />
            <mxPoint x="779.9000000000001" y="1951.4600000000003" as="targetPoint" />
          </mxGeometry>
        </mxCell>
        <mxCell id="jL-DoHjZgoJ6Cv4gA63--139" style="edgeStyle=orthogonalEdgeStyle;rounded=0;orthogonalLoop=1;jettySize=auto;html=1;entryX=0.634;entryY=1.003;entryDx=0;entryDy=0;entryPerimeter=0;exitX=0.502;exitY=0.053;exitDx=0;exitDy=0;exitPerimeter=0;fontFamily=Times New Roman;endArrow=classic;endFill=1;" parent="1" source="jL-DoHjZgoJ6Cv4gA63--142" edge="1">
          <mxGeometry relative="1" as="geometry">
            <mxPoint x="850" y="1971.7" as="sourcePoint" />
            <mxPoint x="849.8399999999997" y="1951.8440000000003" as="targetPoint" />
          </mxGeometry>
        </mxCell>
        <mxCell id="jL-DoHjZgoJ6Cv4gA63--140" style="edgeStyle=orthogonalEdgeStyle;rounded=0;orthogonalLoop=1;jettySize=auto;html=1;entryX=0.904;entryY=0.983;entryDx=0;entryDy=0;entryPerimeter=0;fontFamily=Times New Roman;endArrow=classic;endFill=1;" parent="1" edge="1">
          <mxGeometry relative="1" as="geometry">
            <mxPoint x="920" y="1964.7" as="sourcePoint" />
            <mxPoint x="920.0399999999993" y="1951.8840000000002" as="targetPoint" />
          </mxGeometry>
        </mxCell>
        <mxCell id="jL-DoHjZgoJ6Cv4gA63--141" value="&lt;font color=&quot;#ff0000&quot; style=&quot;font-size: 13px;&quot;&gt;disease&lt;/font&gt;" style="rounded=0;whiteSpace=wrap;html=1;fontFamily=Times New Roman;fontSize=13;strokeColor=none;spacingBottom=-10;spacing=-10;spacingTop=-10;fontStyle=1" parent="1" vertex="1">
          <mxGeometry x="755.5" y="1964.7" width="50" height="12" as="geometry" />
        </mxCell>
        <mxCell id="jL-DoHjZgoJ6Cv4gA63--142" value="&lt;font style=&quot;font-size: 13px;&quot;&gt;of&lt;/font&gt;" style="rounded=0;whiteSpace=wrap;html=1;fontFamily=Times New Roman;fontSize=13;strokeColor=none;spacingBottom=-10;spacing=-10;spacingTop=-10;fillColor=none;" parent="1" vertex="1">
          <mxGeometry x="825" y="1964.7" width="50" height="12" as="geometry" />
        </mxCell>
        <mxCell id="jL-DoHjZgoJ6Cv4gA63--143" style="edgeStyle=orthogonalEdgeStyle;rounded=0;orthogonalLoop=1;jettySize=auto;html=1;entryX=0.365;entryY=0.995;entryDx=0;entryDy=0;entryPerimeter=0;fontFamily=Times New Roman;endArrow=classic;endFill=1;" parent="1" edge="1">
          <mxGeometry relative="1" as="geometry">
            <mxPoint x="709" y="1964.7" as="sourcePoint" />
            <mxPoint x="709" y="1951.7000000000003" as="targetPoint" />
          </mxGeometry>
        </mxCell>
        <mxCell id="jL-DoHjZgoJ6Cv4gA63--144" value="&lt;font style=&quot;font-size: 13px;&quot;&gt;Und&lt;/font&gt;" style="rounded=0;whiteSpace=wrap;html=1;fontFamily=Times New Roman;fontSize=13;strokeColor=none;spacingBottom=-10;spacing=-10;spacingTop=-10;" parent="1" vertex="1">
          <mxGeometry x="685" y="2030.52" width="50" height="12" as="geometry" />
        </mxCell>
        <mxCell id="jL-DoHjZgoJ6Cv4gA63--145" style="edgeStyle=orthogonalEdgeStyle;rounded=0;orthogonalLoop=1;jettySize=auto;html=1;entryX=0.365;entryY=0.995;entryDx=0;entryDy=0;entryPerimeter=0;fontFamily=Times New Roman;endArrow=classic;endFill=1;" parent="1" edge="1">
          <mxGeometry relative="1" as="geometry">
            <mxPoint x="780" y="2037.52" as="sourcePoint" />
            <mxPoint x="779.9000000000001" y="2017.28" as="targetPoint" />
          </mxGeometry>
        </mxCell>
        <mxCell id="jL-DoHjZgoJ6Cv4gA63--146" style="edgeStyle=orthogonalEdgeStyle;rounded=0;orthogonalLoop=1;jettySize=auto;html=1;entryX=0.634;entryY=1.003;entryDx=0;entryDy=0;entryPerimeter=0;exitX=0.502;exitY=0.053;exitDx=0;exitDy=0;exitPerimeter=0;fontFamily=Times New Roman;endArrow=classic;endFill=1;" parent="1" source="jL-DoHjZgoJ6Cv4gA63--149" edge="1">
          <mxGeometry relative="1" as="geometry">
            <mxPoint x="850" y="2037.52" as="sourcePoint" />
            <mxPoint x="849.8399999999997" y="2017.6640000000002" as="targetPoint" />
          </mxGeometry>
        </mxCell>
        <mxCell id="jL-DoHjZgoJ6Cv4gA63--147" style="edgeStyle=orthogonalEdgeStyle;rounded=0;orthogonalLoop=1;jettySize=auto;html=1;entryX=0.904;entryY=0.983;entryDx=0;entryDy=0;entryPerimeter=0;fontFamily=Times New Roman;endArrow=classic;endFill=1;" parent="1" edge="1">
          <mxGeometry relative="1" as="geometry">
            <mxPoint x="920" y="2037.52" as="sourcePoint" />
            <mxPoint x="920.0399999999993" y="2016.7040000000002" as="targetPoint" />
          </mxGeometry>
        </mxCell>
        <mxCell id="jL-DoHjZgoJ6Cv4gA63--148" value="&lt;font style=&quot;font-size: 13px;&quot;&gt;der&lt;/font&gt;" style="rounded=0;whiteSpace=wrap;html=1;fontFamily=Times New Roman;fontSize=13;strokeColor=none;spacingBottom=-10;spacing=-10;spacingTop=-10;fontColor=#000000;" parent="1" vertex="1">
          <mxGeometry x="755.5" y="2030.52" width="50" height="12" as="geometry" />
        </mxCell>
        <mxCell id="jL-DoHjZgoJ6Cv4gA63--149" value="&lt;font style=&quot;font-size: 13px;&quot;&gt;gemeinsame&lt;/font&gt;" style="rounded=0;whiteSpace=wrap;html=1;fontFamily=Times New Roman;fontSize=13;strokeColor=none;spacingBottom=-10;spacing=-10;spacingTop=-10;fillColor=none;" parent="1" vertex="1">
          <mxGeometry x="825" y="2030.52" width="50" height="12" as="geometry" />
        </mxCell>
        <mxCell id="jL-DoHjZgoJ6Cv4gA63--150" value="&lt;font style=&quot;font-size: 13px;&quot;&gt;...&lt;/font&gt;" style="rounded=0;whiteSpace=wrap;html=1;fontFamily=Times New Roman;fontSize=13;strokeColor=none;spacingBottom=-10;spacing=-10;spacingTop=-10;" parent="1" vertex="1">
          <mxGeometry x="895" y="2030.52" width="50" height="12" as="geometry" />
        </mxCell>
        <mxCell id="jL-DoHjZgoJ6Cv4gA63--151" style="edgeStyle=orthogonalEdgeStyle;rounded=0;orthogonalLoop=1;jettySize=auto;html=1;entryX=0.365;entryY=0.995;entryDx=0;entryDy=0;entryPerimeter=0;fontFamily=Times New Roman;endArrow=classic;endFill=1;" parent="1" edge="1">
          <mxGeometry relative="1" as="geometry">
            <mxPoint x="709" y="2030.52" as="sourcePoint" />
            <mxPoint x="709" y="2017.5200000000002" as="targetPoint" />
          </mxGeometry>
        </mxCell>
        <mxCell id="jL-DoHjZgoJ6Cv4gA63--153" value="&lt;font style=&quot;font-size: 13px;&quot;&gt;...&lt;/font&gt;" style="rounded=0;whiteSpace=wrap;html=1;fontFamily=Times New Roman;fontSize=13;strokeColor=none;spacingBottom=-10;spacing=-10;spacingTop=-10;" parent="1" vertex="1">
          <mxGeometry x="895" y="1964.7" width="50" height="12" as="geometry" />
        </mxCell>
        <mxCell id="jL-DoHjZgoJ6Cv4gA63--155" value="&lt;font style=&quot;font-size: 14px;&quot;&gt;(a)&amp;nbsp; Baseline method&lt;/font&gt;" style="rounded=0;whiteSpace=wrap;html=1;fontFamily=Times New Roman;fontSize=13;strokeColor=none;spacingBottom=-10;spacing=-10;spacingTop=-10;fontColor=#000000;" parent="1" vertex="1">
          <mxGeometry x="342.5" y="1727.15" width="125" height="12" as="geometry" />
        </mxCell>
        <mxCell id="jL-DoHjZgoJ6Cv4gA63--156" value="&lt;font style=&quot;font-size: 14px;&quot;&gt;(b)&amp;nbsp; Energy-based model&lt;/font&gt;" style="rounded=0;whiteSpace=wrap;html=1;fontFamily=Times New Roman;fontSize=11;strokeColor=none;spacingBottom=-10;spacing=-10;spacingTop=-10;fontColor=#000000;" parent="1" vertex="1">
          <mxGeometry x="756" y="2047.7" width="125" height="12" as="geometry" />
        </mxCell>
        <mxCell id="jL-DoHjZgoJ6Cv4gA63--157" value="&lt;font style=&quot;font-size: 14px;&quot;&gt;$$S(w,\boldsymbol{x},\boldsymbol{c})$$&lt;/font&gt;" style="text;html=1;align=center;verticalAlign=middle;resizable=0;points=[];autosize=1;strokeColor=none;fillColor=none;fontSize=11;fontFamily=Times New Roman;rounded=0;glass=0;spacingLeft=-90;spacingRight=-90;spacingTop=-5;spacingBottom=-5;fontStyle=1;fontColor=#000000;" parent="1" vertex="1">
          <mxGeometry x="737.75" y="1782.68" width="80" height="20" as="geometry" />
        </mxCell>
        <mxCell id="jL-DoHjZgoJ6Cv4gA63--160" value="$$\mathbf{h}_\mathrm{disease}$$" style="text;html=1;align=center;verticalAlign=middle;resizable=0;points=[];autosize=1;strokeColor=none;fillColor=none;fontSize=14;fontFamily=Times New Roman;spacingLeft=-90;spacingBottom=-10;spacingRight=-90;spacingTop=-10;" parent="1" vertex="1">
          <mxGeometry x="758" y="1834.8300000000002" width="40" height="10" as="geometry" />
        </mxCell>
        <mxCell id="jL-DoHjZgoJ6Cv4gA63--183" value="" style="shape=table;startSize=0;container=1;collapsible=0;childLayout=tableLayout;rounded=0;fillStyle=auto;strokeColor=#6c8ebf;strokeWidth=0.5;fontSize=11;fillColor=#dae8fc;fontFamily=Times New Roman;" parent="1" vertex="1">
          <mxGeometry x="671" y="1784.7" width="53" height="17" as="geometry" />
        </mxCell>
        <mxCell id="jL-DoHjZgoJ6Cv4gA63--184" value="" style="shape=tableRow;horizontal=0;startSize=0;swimlaneHead=0;swimlaneBody=0;top=0;left=0;bottom=0;right=0;collapsible=0;dropTarget=0;fillColor=none;points=[[0,0.5],[1,0.5]];portConstraint=eastwest;rounded=0;fillStyle=auto;strokeColor=#000000;strokeWidth=1;fontSize=11;fontFamily=Times New Roman;" parent="jL-DoHjZgoJ6Cv4gA63--183" vertex="1">
          <mxGeometry width="53" height="17" as="geometry" />
        </mxCell>
        <mxCell id="jL-DoHjZgoJ6Cv4gA63--185" value="&lt;font style=&quot;font-size: 11px;&quot;&gt;&lt;br&gt;&lt;/font&gt;" style="shape=partialRectangle;html=1;whiteSpace=wrap;connectable=0;overflow=hidden;fillColor=none;top=0;left=0;bottom=0;right=0;pointerEvents=1;rounded=0;fillStyle=auto;strokeColor=#000000;strokeWidth=1;fontSize=11;fontFamily=Times New Roman;" parent="jL-DoHjZgoJ6Cv4gA63--184" vertex="1">
          <mxGeometry width="53" height="17" as="geometry">
            <mxRectangle width="53" height="17" as="alternateBounds" />
          </mxGeometry>
        </mxCell>
        <mxCell id="jL-DoHjZgoJ6Cv4gA63--192" value="$$\theta$$" style="text;html=1;align=center;verticalAlign=middle;resizable=0;points=[];autosize=1;strokeColor=none;fillColor=none;fontSize=13;fontFamily=Times New Roman;spacingLeft=-90;spacingBottom=-10;spacingRight=-90;spacingTop=-10;" parent="1" vertex="1">
          <mxGeometry x="697" y="1788.68" width="-110" height="10" as="geometry" />
        </mxCell>
        <mxCell id="jL-DoHjZgoJ6Cv4gA63--199" style="edgeStyle=orthogonalEdgeStyle;rounded=0;orthogonalLoop=1;jettySize=auto;html=1;entryX=-0.008;entryY=0.5;entryDx=0;entryDy=0;strokeColor=#000000;strokeWidth=1;fontFamily=Times New Roman;fontSize=12;fontColor=#EA6B66;entryPerimeter=0;" parent="1" target="jL-DoHjZgoJ6Cv4gA63--163" edge="1">
          <mxGeometry relative="1" as="geometry">
            <mxPoint x="724" y="1792.6341322314051" as="sourcePoint" />
            <mxPoint x="747.5" y="1792.63" as="targetPoint" />
          </mxGeometry>
        </mxCell>
        <mxCell id="jL-DoHjZgoJ6Cv4gA63--114" value="Target Encoder" style="rounded=1;whiteSpace=wrap;html=1;fontSize=15;fillColor=#dae8fc;strokeColor=#6c8ebf;strokeWidth=0.5;fillStyle=auto;fontFamily=Times New Roman;opacity=80;sketch=0;" parent="1" vertex="1">
          <mxGeometry x="580" y="1704.5" width="260" height="75" as="geometry" />
        </mxCell>
        <mxCell id="jL-DoHjZgoJ6Cv4gA63--133" style="rounded=0;orthogonalLoop=1;jettySize=auto;html=1;entryX=1;entryY=0.5;entryDx=0;entryDy=0;fontFamily=Times New Roman;fontSize=10;fontColor=#000000;endArrow=ERzeroToMany;endFill=0;fillColor=#eeeeee;strokeColor=#36393d;exitX=0;exitY=0.5;exitDx=0;exitDy=0;" parent="1" source="jL-DoHjZgoJ6Cv4gA63--70" target="jL-DoHjZgoJ6Cv4gA63--115" edge="1">
          <mxGeometry relative="1" as="geometry">
            <mxPoint x="-950" y="1400" as="sourcePoint" />
          </mxGeometry>
        </mxCell>
        <mxCell id="lNjEDPmtAGZLamaPp14r-15" value="" style="rounded=0;whiteSpace=wrap;html=1;fontFamily=Times New Roman;fontSize=2;strokeColor=#808080;rotation=-90;container=0;" parent="1" vertex="1">
          <mxGeometry x="260" y="1810" width="20" height="20.5" as="geometry" />
        </mxCell>
        <mxCell id="lNjEDPmtAGZLamaPp14r-16" style="edgeStyle=none;rounded=0;orthogonalLoop=1;jettySize=auto;html=1;exitX=1;exitY=0.5;exitDx=0;exitDy=0;fontFamily=Times New Roman;fontSize=2;endArrow=none;endFill=0;strokeColor=#808080;" parent="1" source="lNjEDPmtAGZLamaPp14r-17" edge="1">
          <mxGeometry relative="1" as="geometry">
            <mxPoint x="330" y="1790" as="targetPoint" />
          </mxGeometry>
        </mxCell>
        <mxCell id="lNjEDPmtAGZLamaPp14r-17" value="" style="rounded=0;whiteSpace=wrap;html=1;fontFamily=Times New Roman;fontSize=2;strokeColor=#808080;rotation=-90;container=0;" parent="1" vertex="1">
          <mxGeometry x="290" y="1810" width="20" height="20" as="geometry" />
        </mxCell>
        <mxCell id="lNjEDPmtAGZLamaPp14r-18" value="" style="rounded=0;whiteSpace=wrap;html=1;fontFamily=Times New Roman;fontSize=2;strokeColor=#808080;rotation=-90;container=0;" parent="1" vertex="1">
          <mxGeometry x="320" y="1810" width="20" height="20" as="geometry" />
        </mxCell>
        <mxCell id="lNjEDPmtAGZLamaPp14r-19" value="" style="rounded=0;whiteSpace=wrap;html=1;fontFamily=Times New Roman;fontSize=2;strokeColor=#808080;rotation=-90;container=0;" parent="1" vertex="1">
          <mxGeometry x="350" y="1810" width="20" height="20" as="geometry" />
        </mxCell>
        <mxCell id="lNjEDPmtAGZLamaPp14r-20" value="" style="rounded=0;whiteSpace=wrap;html=1;fontFamily=Times New Roman;fontSize=2;strokeColor=#808080;rotation=-90;container=0;" parent="1" vertex="1">
          <mxGeometry x="260.13" y="1770.13" width="19.75" height="20" as="geometry" />
        </mxCell>
        <mxCell id="lNjEDPmtAGZLamaPp14r-21" style="edgeStyle=orthogonalEdgeStyle;rounded=0;orthogonalLoop=1;jettySize=auto;html=1;entryX=0;entryY=0.5;entryDx=0;entryDy=0;fontFamily=Times New Roman;fontSize=2;endArrow=none;endFill=0;strokeColor=#808080;" parent="1" source="lNjEDPmtAGZLamaPp14r-15" target="lNjEDPmtAGZLamaPp14r-20" edge="1">
          <mxGeometry relative="1" as="geometry" />
        </mxCell>
        <mxCell id="lNjEDPmtAGZLamaPp14r-22" style="edgeStyle=none;rounded=0;orthogonalLoop=1;jettySize=auto;html=1;exitX=1;exitY=0.5;exitDx=0;exitDy=0;entryX=0;entryY=0.5;entryDx=0;entryDy=0;fontFamily=Times New Roman;fontSize=2;endArrow=none;endFill=0;strokeColor=#808080;" parent="1" source="lNjEDPmtAGZLamaPp14r-17" target="lNjEDPmtAGZLamaPp14r-20" edge="1">
          <mxGeometry relative="1" as="geometry" />
        </mxCell>
        <mxCell id="lNjEDPmtAGZLamaPp14r-23" style="edgeStyle=none;rounded=0;orthogonalLoop=1;jettySize=auto;html=1;exitX=1;exitY=0.5;exitDx=0;exitDy=0;entryX=0;entryY=0.5;entryDx=0;entryDy=0;fontFamily=Times New Roman;fontSize=2;endArrow=none;endFill=0;strokeColor=#808080;" parent="1" source="lNjEDPmtAGZLamaPp14r-18" target="lNjEDPmtAGZLamaPp14r-20" edge="1">
          <mxGeometry relative="1" as="geometry" />
        </mxCell>
        <mxCell id="lNjEDPmtAGZLamaPp14r-24" style="edgeStyle=none;rounded=0;orthogonalLoop=1;jettySize=auto;html=1;exitX=1;exitY=0.5;exitDx=0;exitDy=0;entryX=0;entryY=0.5;entryDx=0;entryDy=0;fontFamily=Times New Roman;fontSize=2;endArrow=none;endFill=0;strokeColor=#808080;" parent="1" source="lNjEDPmtAGZLamaPp14r-19" target="lNjEDPmtAGZLamaPp14r-20" edge="1">
          <mxGeometry relative="1" as="geometry" />
        </mxCell>
        <mxCell id="lNjEDPmtAGZLamaPp14r-25" value="" style="rounded=0;whiteSpace=wrap;html=1;fontFamily=Times New Roman;fontSize=2;strokeColor=#808080;rotation=-90;container=0;" parent="1" vertex="1">
          <mxGeometry x="290" y="1770" width="20" height="20" as="geometry" />
        </mxCell>
        <mxCell id="lNjEDPmtAGZLamaPp14r-26" style="edgeStyle=none;rounded=0;orthogonalLoop=1;jettySize=auto;html=1;entryX=0;entryY=0.5;entryDx=0;entryDy=0;fontFamily=Times New Roman;fontSize=2;endArrow=none;endFill=0;exitX=1;exitY=0.5;exitDx=0;exitDy=0;strokeColor=#808080;" parent="1" source="lNjEDPmtAGZLamaPp14r-15" target="lNjEDPmtAGZLamaPp14r-25" edge="1">
          <mxGeometry relative="1" as="geometry" />
        </mxCell>
        <mxCell id="lNjEDPmtAGZLamaPp14r-27" style="edgeStyle=none;rounded=0;orthogonalLoop=1;jettySize=auto;html=1;exitX=1;exitY=0.5;exitDx=0;exitDy=0;entryX=0;entryY=0.5;entryDx=0;entryDy=0;fontFamily=Times New Roman;fontSize=2;endArrow=none;endFill=0;strokeColor=#808080;" parent="1" source="lNjEDPmtAGZLamaPp14r-17" target="lNjEDPmtAGZLamaPp14r-25" edge="1">
          <mxGeometry relative="1" as="geometry" />
        </mxCell>
        <mxCell id="lNjEDPmtAGZLamaPp14r-28" style="edgeStyle=none;rounded=0;orthogonalLoop=1;jettySize=auto;html=1;exitX=1;exitY=0.5;exitDx=0;exitDy=0;entryX=0;entryY=0.5;entryDx=0;entryDy=0;fontFamily=Times New Roman;fontSize=2;endArrow=none;endFill=0;strokeColor=#808080;" parent="1" source="lNjEDPmtAGZLamaPp14r-18" target="lNjEDPmtAGZLamaPp14r-25" edge="1">
          <mxGeometry relative="1" as="geometry" />
        </mxCell>
        <mxCell id="lNjEDPmtAGZLamaPp14r-29" style="edgeStyle=none;rounded=0;orthogonalLoop=1;jettySize=auto;html=1;exitX=1;exitY=0.5;exitDx=0;exitDy=0;entryX=0;entryY=0.5;entryDx=0;entryDy=0;fontFamily=Times New Roman;fontSize=2;endArrow=none;endFill=0;strokeColor=#808080;" parent="1" source="lNjEDPmtAGZLamaPp14r-19" target="lNjEDPmtAGZLamaPp14r-25" edge="1">
          <mxGeometry relative="1" as="geometry" />
        </mxCell>
        <mxCell id="lNjEDPmtAGZLamaPp14r-30" value="" style="rounded=0;whiteSpace=wrap;html=1;fontFamily=Times New Roman;fontSize=2;strokeColor=#808080;rotation=-90;container=0;" parent="1" vertex="1">
          <mxGeometry x="320" y="1770" width="20" height="20" as="geometry" />
        </mxCell>
        <mxCell id="lNjEDPmtAGZLamaPp14r-31" style="edgeStyle=none;rounded=0;orthogonalLoop=1;jettySize=auto;html=1;entryX=0;entryY=0.5;entryDx=0;entryDy=0;fontFamily=Times New Roman;fontSize=2;endArrow=none;endFill=0;exitX=1;exitY=0.5;exitDx=0;exitDy=0;strokeColor=#808080;" parent="1" source="lNjEDPmtAGZLamaPp14r-15" target="lNjEDPmtAGZLamaPp14r-30" edge="1">
          <mxGeometry relative="1" as="geometry" />
        </mxCell>
        <mxCell id="lNjEDPmtAGZLamaPp14r-32" style="edgeStyle=none;rounded=0;orthogonalLoop=1;jettySize=auto;html=1;exitX=1;exitY=0.5;exitDx=0;exitDy=0;entryX=0;entryY=0.5;entryDx=0;entryDy=0;fontFamily=Times New Roman;fontSize=2;endArrow=none;endFill=0;strokeColor=#808080;" parent="1" source="lNjEDPmtAGZLamaPp14r-18" target="lNjEDPmtAGZLamaPp14r-30" edge="1">
          <mxGeometry relative="1" as="geometry" />
        </mxCell>
        <mxCell id="lNjEDPmtAGZLamaPp14r-33" style="edgeStyle=none;rounded=0;orthogonalLoop=1;jettySize=auto;html=1;exitX=1;exitY=0.5;exitDx=0;exitDy=0;entryX=0;entryY=0.5;entryDx=0;entryDy=0;fontFamily=Times New Roman;fontSize=2;endArrow=none;endFill=0;strokeColor=#808080;" parent="1" source="lNjEDPmtAGZLamaPp14r-19" target="lNjEDPmtAGZLamaPp14r-30" edge="1">
          <mxGeometry relative="1" as="geometry" />
        </mxCell>
        <mxCell id="lNjEDPmtAGZLamaPp14r-34" value="" style="rounded=0;whiteSpace=wrap;html=1;fontFamily=Times New Roman;fontSize=2;strokeColor=#808080;rotation=-90;container=0;" parent="1" vertex="1">
          <mxGeometry x="350" y="1770" width="20" height="20" as="geometry" />
        </mxCell>
        <mxCell id="lNjEDPmtAGZLamaPp14r-35" style="edgeStyle=none;rounded=0;orthogonalLoop=1;jettySize=auto;html=1;entryX=0;entryY=0.5;entryDx=0;entryDy=0;fontFamily=Times New Roman;fontSize=2;endArrow=none;endFill=0;exitX=1;exitY=0.5;exitDx=0;exitDy=0;strokeColor=#808080;" parent="1" source="lNjEDPmtAGZLamaPp14r-15" target="lNjEDPmtAGZLamaPp14r-34" edge="1">
          <mxGeometry relative="1" as="geometry" />
        </mxCell>
        <mxCell id="lNjEDPmtAGZLamaPp14r-36" style="edgeStyle=none;rounded=0;orthogonalLoop=1;jettySize=auto;html=1;exitX=1;exitY=0.5;exitDx=0;exitDy=0;entryX=0;entryY=0.5;entryDx=0;entryDy=0;fontFamily=Times New Roman;fontSize=2;endArrow=none;endFill=0;strokeColor=#808080;" parent="1" source="lNjEDPmtAGZLamaPp14r-17" target="lNjEDPmtAGZLamaPp14r-34" edge="1">
          <mxGeometry relative="1" as="geometry" />
        </mxCell>
        <mxCell id="lNjEDPmtAGZLamaPp14r-37" style="edgeStyle=none;rounded=0;orthogonalLoop=1;jettySize=auto;html=1;exitX=1;exitY=0.5;exitDx=0;exitDy=0;entryX=0;entryY=0.5;entryDx=0;entryDy=0;fontFamily=Times New Roman;fontSize=2;endArrow=none;endFill=0;strokeColor=#808080;" parent="1" source="lNjEDPmtAGZLamaPp14r-18" target="lNjEDPmtAGZLamaPp14r-34" edge="1">
          <mxGeometry relative="1" as="geometry" />
        </mxCell>
        <mxCell id="lNjEDPmtAGZLamaPp14r-38" style="edgeStyle=none;rounded=0;orthogonalLoop=1;jettySize=auto;html=1;exitX=1;exitY=0.5;exitDx=0;exitDy=0;entryX=0;entryY=0.5;entryDx=0;entryDy=0;fontFamily=Times New Roman;fontSize=2;endArrow=none;endFill=0;strokeColor=#808080;" parent="1" source="lNjEDPmtAGZLamaPp14r-19" target="lNjEDPmtAGZLamaPp14r-34" edge="1">
          <mxGeometry relative="1" as="geometry" />
        </mxCell>
        <mxCell id="lNjEDPmtAGZLamaPp14r-39" style="edgeStyle=none;rounded=0;orthogonalLoop=1;jettySize=auto;html=1;entryX=1;entryY=0.5;entryDx=0;entryDy=0;fontFamily=Times New Roman;fontSize=2;endArrow=none;endFill=0;strokeColor=#808080;" parent="1" source="lNjEDPmtAGZLamaPp14r-15" target="lNjEDPmtAGZLamaPp14r-15" edge="1">
          <mxGeometry relative="1" as="geometry" />
        </mxCell>
        <mxCell id="lNjEDPmtAGZLamaPp14r-40" style="edgeStyle=none;rounded=0;orthogonalLoop=1;jettySize=auto;html=1;exitX=0;exitY=0.5;exitDx=0;exitDy=0;entryX=1;entryY=0.5;entryDx=0;entryDy=0;strokeColor=#808080;fontSize=1;fontColor=#999999;endArrow=none;endFill=0;fontFamily=Times New Roman;" parent="1" source="lNjEDPmtAGZLamaPp14r-44" target="lNjEDPmtAGZLamaPp14r-19" edge="1">
          <mxGeometry relative="1" as="geometry" />
        </mxCell>
        <mxCell id="lNjEDPmtAGZLamaPp14r-41" style="edgeStyle=none;rounded=0;orthogonalLoop=1;jettySize=auto;html=1;exitX=0;exitY=0.5;exitDx=0;exitDy=0;entryX=1;entryY=0.5;entryDx=0;entryDy=0;strokeColor=#808080;fontSize=1;fontColor=#999999;endArrow=none;endFill=0;fontFamily=Times New Roman;" parent="1" source="lNjEDPmtAGZLamaPp14r-44" target="lNjEDPmtAGZLamaPp14r-18" edge="1">
          <mxGeometry relative="1" as="geometry" />
        </mxCell>
        <mxCell id="lNjEDPmtAGZLamaPp14r-42" style="edgeStyle=none;rounded=0;orthogonalLoop=1;jettySize=auto;html=1;entryX=1;entryY=0.5;entryDx=0;entryDy=0;strokeColor=#808080;fontSize=1;fontColor=#999999;endArrow=none;endFill=0;exitX=0;exitY=0.5;exitDx=0;exitDy=0;fontFamily=Times New Roman;" parent="1" source="lNjEDPmtAGZLamaPp14r-44" target="lNjEDPmtAGZLamaPp14r-17" edge="1">
          <mxGeometry relative="1" as="geometry" />
        </mxCell>
        <mxCell id="lNjEDPmtAGZLamaPp14r-43" style="edgeStyle=none;rounded=0;orthogonalLoop=1;jettySize=auto;html=1;entryX=1;entryY=0.5;entryDx=0;entryDy=0;strokeColor=#808080;fontSize=1;fontColor=#999999;endArrow=none;endFill=0;exitX=0;exitY=0.5;exitDx=0;exitDy=0;fontFamily=Times New Roman;" parent="1" source="lNjEDPmtAGZLamaPp14r-44" target="lNjEDPmtAGZLamaPp14r-15" edge="1">
          <mxGeometry relative="1" as="geometry" />
        </mxCell>
        <mxCell id="lNjEDPmtAGZLamaPp14r-44" value="" style="rounded=0;whiteSpace=wrap;html=1;fontFamily=Times New Roman;fontSize=2;strokeColor=#808080;rotation=-90;container=0;" parent="1" vertex="1">
          <mxGeometry x="382.5" y="1770" width="20" height="20" as="geometry" />
        </mxCell>
        <mxCell id="lNjEDPmtAGZLamaPp14r-45" value="" style="rounded=0;whiteSpace=wrap;html=1;fontFamily=Times New Roman;fontSize=2;strokeColor=#808080;rotation=-90;container=0;" parent="1" vertex="1">
          <mxGeometry x="382.5" y="1810" width="20" height="20" as="geometry" />
        </mxCell>
        <mxCell id="lNjEDPmtAGZLamaPp14r-46" style="rounded=0;orthogonalLoop=1;jettySize=auto;html=1;strokeColor=#808080;fontSize=1;fontColor=#999999;entryX=1;entryY=0.5;entryDx=0;entryDy=0;exitX=0;exitY=0.5;exitDx=0;exitDy=0;endArrow=none;endFill=0;fontFamily=Times New Roman;" parent="1" source="lNjEDPmtAGZLamaPp14r-34" target="lNjEDPmtAGZLamaPp14r-45" edge="1">
          <mxGeometry relative="1" as="geometry">
            <mxPoint x="387" y="1808" as="targetPoint" />
          </mxGeometry>
        </mxCell>
        <mxCell id="lNjEDPmtAGZLamaPp14r-47" style="edgeStyle=none;rounded=0;orthogonalLoop=1;jettySize=auto;html=1;entryX=1;entryY=0.5;entryDx=0;entryDy=0;strokeColor=#808080;fontSize=1;fontColor=#999999;endArrow=none;endFill=0;exitX=0;exitY=0.5;exitDx=0;exitDy=0;fontFamily=Times New Roman;" parent="1" source="lNjEDPmtAGZLamaPp14r-20" target="lNjEDPmtAGZLamaPp14r-45" edge="1">
          <mxGeometry relative="1" as="geometry">
            <mxPoint x="297" y="1768" as="sourcePoint" />
          </mxGeometry>
        </mxCell>
        <mxCell id="lNjEDPmtAGZLamaPp14r-48" style="edgeStyle=none;rounded=0;orthogonalLoop=1;jettySize=auto;html=1;entryX=1;entryY=0.5;entryDx=0;entryDy=0;strokeColor=#808080;fontSize=1;fontColor=#999999;endArrow=none;endFill=0;exitX=0;exitY=0.5;exitDx=0;exitDy=0;fontFamily=Times New Roman;" parent="1" source="lNjEDPmtAGZLamaPp14r-25" target="lNjEDPmtAGZLamaPp14r-45" edge="1">
          <mxGeometry relative="1" as="geometry" />
        </mxCell>
        <mxCell id="lNjEDPmtAGZLamaPp14r-49" style="edgeStyle=none;rounded=0;orthogonalLoop=1;jettySize=auto;html=1;entryX=1;entryY=0.5;entryDx=0;entryDy=0;strokeColor=#808080;fontSize=1;fontColor=#999999;endArrow=none;endFill=0;exitX=0;exitY=0.5;exitDx=0;exitDy=0;fontFamily=Times New Roman;" parent="1" source="lNjEDPmtAGZLamaPp14r-30" target="lNjEDPmtAGZLamaPp14r-45" edge="1">
          <mxGeometry relative="1" as="geometry" />
        </mxCell>
        <mxCell id="lNjEDPmtAGZLamaPp14r-50" style="edgeStyle=none;rounded=0;orthogonalLoop=1;jettySize=auto;html=1;entryX=0.93;entryY=0.515;entryDx=0;entryDy=0;entryPerimeter=0;strokeColor=#808080;fontSize=1;fontColor=#999999;endArrow=none;endFill=0;fontFamily=Times New Roman;" parent="1" source="lNjEDPmtAGZLamaPp14r-44" target="lNjEDPmtAGZLamaPp14r-45" edge="1">
          <mxGeometry relative="1" as="geometry" />
        </mxCell>
        <mxCell id="lNjEDPmtAGZLamaPp14r-51" style="edgeStyle=none;rounded=0;orthogonalLoop=1;jettySize=auto;html=1;entryX=1;entryY=0.5;entryDx=0;entryDy=0;strokeColor=#808080;fontSize=1;fontColor=#999999;endArrow=none;endFill=0;exitX=0;exitY=0.5;exitDx=0;exitDy=0;fontFamily=Times New Roman;" parent="1" source="lNjEDPmtAGZLamaPp14r-34" target="lNjEDPmtAGZLamaPp14r-45" edge="1">
          <mxGeometry relative="1" as="geometry" />
        </mxCell>
        <mxCell id="lNjEDPmtAGZLamaPp14r-78" value="&lt;font style=&quot;font-size: 12px;&quot;&gt;Und&lt;/font&gt;" style="rounded=1;whiteSpace=wrap;html=1;fontFamily=Times New Roman;fontSize=2;strokeColor=#000000;rotation=0;container=0;fillColor=#FECCCB;strokeWidth=0.2;" parent="1" vertex="1">
          <mxGeometry x="-1350" y="1390" width="22" height="20" as="geometry" />
        </mxCell>
        <mxCell id="lNjEDPmtAGZLamaPp14r-79" value="&lt;font style=&quot;font-size: 12px;&quot;&gt;der&lt;/font&gt;" style="rounded=1;whiteSpace=wrap;html=1;fontFamily=Times New Roman;fontSize=2;strokeColor=#000000;rotation=0;container=0;fillColor=#FECCCB;strokeWidth=0.2;" parent="1" vertex="1">
          <mxGeometry x="-1306" y="1390" width="22" height="20" as="geometry" />
        </mxCell>
        <mxCell id="lNjEDPmtAGZLamaPp14r-81" value="&lt;font style=&quot;font-size: 12px;&quot;&gt;[/s]&lt;/font&gt;" style="rounded=1;whiteSpace=wrap;html=1;fontFamily=Times New Roman;fontSize=2;strokeColor=#000000;rotation=0;container=0;fillColor=#FECCCB;strokeWidth=0.2;" parent="1" vertex="1">
          <mxGeometry x="-1223" y="1390" width="22" height="20" as="geometry" />
        </mxCell>
        <mxCell id="lNjEDPmtAGZLamaPp14r-86" value="&lt;font style=&quot;font-size: 12px;&quot;&gt;And&lt;/font&gt;" style="rounded=1;whiteSpace=wrap;html=1;fontFamily=Times New Roman;fontSize=2;strokeColor=#000000;rotation=0;container=0;fillColor=#FECCCB;strokeWidth=0.2;" parent="1" vertex="1">
          <mxGeometry x="-1180" y="1390" width="22" height="20" as="geometry" />
        </mxCell>
        <mxCell id="lNjEDPmtAGZLamaPp14r-87" value="&lt;font style=&quot;font-size: 12px;&quot;&gt;[c]&lt;br&gt;&lt;/font&gt;" style="rounded=1;whiteSpace=wrap;html=1;fontFamily=Times New Roman;fontSize=2;strokeColor=#000000;rotation=0;container=0;fillColor=#FECCCB;strokeWidth=0.2;" parent="1" vertex="1">
          <mxGeometry x="-1136" y="1390" width="22" height="20" as="geometry" />
        </mxCell>
        <mxCell id="lNjEDPmtAGZLamaPp14r-88" value="&lt;font style=&quot;font-size: 12px;&quot;&gt;[/c]&lt;/font&gt;" style="rounded=1;whiteSpace=wrap;html=1;fontFamily=Times New Roman;fontSize=2;strokeColor=#000000;rotation=0;container=0;fillColor=#FECCCB;strokeWidth=0.2;" parent="1" vertex="1">
          <mxGeometry x="-1005" y="1390" width="22" height="20" as="geometry" />
        </mxCell>
        <mxCell id="lNjEDPmtAGZLamaPp14r-89" value="&lt;font style=&quot;font-size: 12px;&quot;&gt;d&lt;/font&gt;" style="rounded=1;whiteSpace=wrap;html=1;fontFamily=Times New Roman;fontSize=2;strokeColor=#000000;rotation=0;container=0;fillColor=#FECCCB;strokeWidth=0.2;" parent="1" vertex="1">
          <mxGeometry x="-1093" y="1390" width="22" height="20" as="geometry" />
        </mxCell>
        <mxCell id="lNjEDPmtAGZLamaPp14r-90" value="&lt;font style=&quot;font-size: 12px;&quot;&gt;i&lt;br&gt;&lt;/font&gt;" style="rounded=1;whiteSpace=wrap;html=1;fontFamily=Times New Roman;fontSize=2;strokeColor=#000000;rotation=0;container=0;fillColor=#FECCCB;strokeWidth=0.2;" parent="1" vertex="1">
          <mxGeometry x="-1049" y="1390" width="22" height="20" as="geometry" />
        </mxCell>
        <mxCell id="lNjEDPmtAGZLamaPp14r-91" value="&lt;font style=&quot;font-size: 12px;&quot;&gt;of&lt;br&gt;&lt;/font&gt;" style="rounded=1;whiteSpace=wrap;html=1;fontFamily=Times New Roman;fontSize=2;strokeColor=#000000;rotation=0;container=0;fillColor=#FECCCB;strokeWidth=0.2;" parent="1" vertex="1">
          <mxGeometry x="-962" y="1390" width="22" height="20" as="geometry" />
        </mxCell>
        <mxCell id="lNjEDPmtAGZLamaPp14r-92" value="&lt;font style=&quot;font-size: 12px;&quot;&gt;...&lt;/font&gt;" style="rounded=1;whiteSpace=wrap;html=1;fontFamily=Times New Roman;fontSize=2;strokeColor=#000000;rotation=0;container=0;fillColor=#FECCCB;strokeWidth=0.2;" parent="1" vertex="1">
          <mxGeometry x="-1267" y="1390" width="22" height="20" as="geometry" />
        </mxCell>
        <mxCell id="lNjEDPmtAGZLamaPp14r-93" value="&lt;font style=&quot;font-size: 12px;&quot;&gt;...&lt;br&gt;&lt;/font&gt;" style="rounded=1;whiteSpace=wrap;html=1;fontFamily=Times New Roman;fontSize=2;strokeColor=#000000;rotation=0;container=0;fillColor=#FECCCB;strokeWidth=0.2;" parent="1" vertex="1">
          <mxGeometry x="-918" y="1390" width="22" height="20" as="geometry" />
        </mxCell>
        <mxCell id="lNjEDPmtAGZLamaPp14r-94" value="&lt;span style=&quot;font-size: 12px;&quot;&gt;0&lt;/span&gt;" style="rounded=1;whiteSpace=wrap;html=1;fontFamily=Times New Roman;fontSize=2;strokeColor=#000000;rotation=0;container=0;fillColor=#CCE2FF;strokeWidth=0.2;" parent="1" vertex="1">
          <mxGeometry x="-1350" y="1431" width="22" height="20" as="geometry" />
        </mxCell>
        <mxCell id="lNjEDPmtAGZLamaPp14r-95" value="&lt;font style=&quot;font-size: 12px;&quot;&gt;1&lt;/font&gt;" style="rounded=1;whiteSpace=wrap;html=1;fontFamily=Times New Roman;fontSize=2;strokeColor=#000000;rotation=0;container=0;fillColor=#CCE2FF;strokeWidth=0.2;" parent="1" vertex="1">
          <mxGeometry x="-1306" y="1431" width="22" height="20" as="geometry" />
        </mxCell>
        <mxCell id="lNjEDPmtAGZLamaPp14r-97" value="&lt;font style=&quot;font-size: 12px;&quot;&gt;8&lt;/font&gt;" style="rounded=1;whiteSpace=wrap;html=1;fontFamily=Times New Roman;fontSize=2;strokeColor=#000000;rotation=0;container=0;fillColor=#CCE2FF;strokeWidth=0.2;" parent="1" vertex="1">
          <mxGeometry x="-1223" y="1432" width="22" height="20" as="geometry" />
        </mxCell>
        <mxCell id="lNjEDPmtAGZLamaPp14r-98" value="&lt;font style=&quot;font-size: 12px;&quot;&gt;0&lt;/font&gt;" style="rounded=1;whiteSpace=wrap;html=1;fontFamily=Times New Roman;fontSize=2;strokeColor=#000000;rotation=0;container=0;fillColor=#CCE2FF;strokeWidth=0.2;" parent="1" vertex="1">
          <mxGeometry x="-1180" y="1432" width="22" height="20" as="geometry" />
        </mxCell>
        <mxCell id="lNjEDPmtAGZLamaPp14r-99" value="&lt;font style=&quot;font-size: 12px;&quot;&gt;1&lt;/font&gt;" style="rounded=1;whiteSpace=wrap;html=1;fontFamily=Times New Roman;fontSize=2;strokeColor=#000000;rotation=0;container=0;fillColor=#CCE2FF;strokeWidth=0.2;" parent="1" vertex="1">
          <mxGeometry x="-1136" y="1432" width="22" height="20" as="geometry" />
        </mxCell>
        <mxCell id="lNjEDPmtAGZLamaPp14r-100" value="&lt;font style=&quot;font-size: 12px;&quot;&gt;4&lt;/font&gt;" style="rounded=1;whiteSpace=wrap;html=1;fontFamily=Times New Roman;fontSize=2;strokeColor=#000000;rotation=0;container=0;fillColor=#CCE2FF;strokeWidth=0.2;" parent="1" vertex="1">
          <mxGeometry x="-1005" y="1432" width="22" height="20" as="geometry" />
        </mxCell>
        <mxCell id="lNjEDPmtAGZLamaPp14r-101" value="&lt;font style=&quot;font-size: 12px;&quot;&gt;2&lt;/font&gt;" style="rounded=1;whiteSpace=wrap;html=1;fontFamily=Times New Roman;fontSize=2;strokeColor=#000000;rotation=0;container=0;fillColor=#CCE2FF;strokeWidth=0.2;" parent="1" vertex="1">
          <mxGeometry x="-1093" y="1432" width="22" height="20" as="geometry" />
        </mxCell>
        <mxCell id="lNjEDPmtAGZLamaPp14r-102" value="&lt;font style=&quot;font-size: 12px;&quot;&gt;3&lt;br&gt;&lt;/font&gt;" style="rounded=1;whiteSpace=wrap;html=1;fontFamily=Times New Roman;fontSize=2;strokeColor=#000000;rotation=0;container=0;fillColor=#CCE2FF;strokeWidth=0.2;" parent="1" vertex="1">
          <mxGeometry x="-1049" y="1432" width="22" height="20" as="geometry" />
        </mxCell>
        <mxCell id="lNjEDPmtAGZLamaPp14r-103" value="&lt;font style=&quot;font-size: 12px;&quot;&gt;5&lt;br&gt;&lt;/font&gt;" style="rounded=1;whiteSpace=wrap;html=1;fontFamily=Times New Roman;fontSize=2;strokeColor=#000000;rotation=0;container=0;fillColor=#CCE2FF;strokeWidth=0.2;" parent="1" vertex="1">
          <mxGeometry x="-962" y="1432" width="22" height="20" as="geometry" />
        </mxCell>
        <mxCell id="lNjEDPmtAGZLamaPp14r-104" value="&lt;font style=&quot;font-size: 12px;&quot;&gt;...&lt;/font&gt;" style="rounded=1;whiteSpace=wrap;html=1;fontFamily=Times New Roman;fontSize=2;strokeColor=#000000;rotation=0;container=0;fillColor=#CCE2FF;strokeWidth=0.2;" parent="1" vertex="1">
          <mxGeometry x="-1267" y="1432" width="22" height="20" as="geometry" />
        </mxCell>
        <mxCell id="lNjEDPmtAGZLamaPp14r-105" value="&lt;font style=&quot;font-size: 12px;&quot;&gt;...&lt;br&gt;&lt;/font&gt;" style="rounded=1;whiteSpace=wrap;html=1;fontFamily=Times New Roman;fontSize=2;strokeColor=#000000;rotation=0;container=0;fillColor=#CCE2FF;strokeWidth=0.2;" parent="1" vertex="1">
          <mxGeometry x="-918" y="1432" width="22" height="20" as="geometry" />
        </mxCell>
        <mxCell id="lNjEDPmtAGZLamaPp14r-106" value="&lt;span style=&quot;font-size: 12px;&quot;&gt;de&lt;/span&gt;" style="rounded=1;whiteSpace=wrap;html=1;fontFamily=Times New Roman;fontSize=2;strokeColor=#000000;rotation=0;container=0;strokeWidth=0.2;fillColor=#75c3b7;shadow=0;glass=0;" parent="1" vertex="1">
          <mxGeometry x="-1350" y="1473" width="22" height="20" as="geometry" />
        </mxCell>
        <mxCell id="lNjEDPmtAGZLamaPp14r-107" value="&lt;font style=&quot;font-size: 12px;&quot;&gt;de&lt;/font&gt;" style="rounded=1;whiteSpace=wrap;html=1;fontFamily=Times New Roman;fontSize=2;strokeColor=#000000;rotation=0;container=0;strokeWidth=0.2;fillColor=#75c3b7;shadow=0;glass=0;" parent="1" vertex="1">
          <mxGeometry x="-1306" y="1473" width="22" height="20" as="geometry" />
        </mxCell>
        <mxCell id="lNjEDPmtAGZLamaPp14r-109" value="&lt;font style=&quot;font-size: 12px;&quot;&gt;de&lt;/font&gt;" style="rounded=1;whiteSpace=wrap;html=1;fontFamily=Times New Roman;fontSize=2;strokeColor=#000000;rotation=0;container=0;strokeWidth=0.2;fillColor=#75c3b7;shadow=0;glass=0;" parent="1" vertex="1">
          <mxGeometry x="-1223" y="1473" width="22" height="20" as="geometry" />
        </mxCell>
        <mxCell id="lNjEDPmtAGZLamaPp14r-110" value="&lt;font style=&quot;font-size: 12px;&quot;&gt;en&lt;/font&gt;" style="rounded=1;whiteSpace=wrap;html=1;fontFamily=Times New Roman;fontSize=2;strokeColor=#000000;rotation=0;container=0;strokeWidth=0.2;fillColor=#75c3b7;shadow=0;glass=0;" parent="1" vertex="1">
          <mxGeometry x="-1180" y="1473" width="22" height="20" as="geometry" />
        </mxCell>
        <mxCell id="lNjEDPmtAGZLamaPp14r-111" value="&lt;font style=&quot;font-size: 12px;&quot;&gt;en&lt;/font&gt;" style="rounded=1;whiteSpace=wrap;html=1;fontFamily=Times New Roman;fontSize=2;strokeColor=#000000;rotation=0;container=0;strokeWidth=0.2;fillColor=#75c3b7;shadow=0;glass=0;" parent="1" vertex="1">
          <mxGeometry x="-1136" y="1473" width="22" height="20" as="geometry" />
        </mxCell>
        <mxCell id="lNjEDPmtAGZLamaPp14r-112" value="&lt;font style=&quot;font-size: 12px;&quot;&gt;en&lt;/font&gt;" style="rounded=1;whiteSpace=wrap;html=1;fontFamily=Times New Roman;fontSize=2;strokeColor=#000000;rotation=0;container=0;strokeWidth=0.2;fillColor=#75c3b7;shadow=0;glass=0;" parent="1" vertex="1">
          <mxGeometry x="-1005" y="1473" width="22" height="20" as="geometry" />
        </mxCell>
        <mxCell id="lNjEDPmtAGZLamaPp14r-113" value="&lt;font style=&quot;font-size: 12px;&quot;&gt;en&lt;/font&gt;" style="rounded=1;whiteSpace=wrap;html=1;fontFamily=Times New Roman;fontSize=2;strokeColor=#000000;rotation=0;container=0;strokeWidth=0.2;fillColor=#75c3b7;shadow=0;glass=0;" parent="1" vertex="1">
          <mxGeometry x="-1093" y="1473" width="22" height="20" as="geometry" />
        </mxCell>
        <mxCell id="lNjEDPmtAGZLamaPp14r-114" value="&lt;font style=&quot;font-size: 12px;&quot;&gt;en&lt;br&gt;&lt;/font&gt;" style="rounded=1;whiteSpace=wrap;html=1;fontFamily=Times New Roman;fontSize=2;strokeColor=#000000;rotation=0;container=0;strokeWidth=0.2;fillColor=#75c3b7;shadow=0;glass=0;" parent="1" vertex="1">
          <mxGeometry x="-1049" y="1473" width="22" height="20" as="geometry" />
        </mxCell>
        <mxCell id="lNjEDPmtAGZLamaPp14r-115" value="&lt;font style=&quot;font-size: 12px;&quot;&gt;en&lt;br&gt;&lt;/font&gt;" style="rounded=1;whiteSpace=wrap;html=1;fontFamily=Times New Roman;fontSize=2;strokeColor=#000000;rotation=0;container=0;strokeWidth=0.2;fillColor=#75c3b7;shadow=0;glass=0;" parent="1" vertex="1">
          <mxGeometry x="-962" y="1474" width="22" height="20" as="geometry" />
        </mxCell>
        <mxCell id="lNjEDPmtAGZLamaPp14r-116" value="&lt;span style=&quot;font-size: 12px;&quot;&gt;...&lt;/span&gt;" style="rounded=1;whiteSpace=wrap;html=1;fontFamily=Times New Roman;fontSize=2;strokeColor=#000000;rotation=0;container=0;strokeWidth=0.2;fillColor=#75c3b7;shadow=0;glass=0;" parent="1" vertex="1">
          <mxGeometry x="-1267" y="1474" width="22" height="20" as="geometry" />
        </mxCell>
        <mxCell id="lNjEDPmtAGZLamaPp14r-117" value="&lt;font style=&quot;font-size: 12px;&quot;&gt;...&lt;br&gt;&lt;/font&gt;" style="rounded=1;whiteSpace=wrap;html=1;fontFamily=Times New Roman;fontSize=2;strokeColor=#000000;rotation=0;container=0;strokeWidth=0.2;fillColor=#75c3b7;shadow=0;glass=0;" parent="1" vertex="1">
          <mxGeometry x="-918" y="1474" width="22" height="20" as="geometry" />
        </mxCell>
        <mxCell id="lNjEDPmtAGZLamaPp14r-8" value="" style="group" parent="1" vertex="1" connectable="0">
          <mxGeometry x="-190" y="1820" width="142.75" height="60.25" as="geometry" />
        </mxCell>
        <mxCell id="jL-DoHjZgoJ6Cv4gA63--76" value="" style="group;rotation=-90;fontFamily=Times New Roman;" parent="lNjEDPmtAGZLamaPp14r-8" vertex="1" connectable="0">
          <mxGeometry x="25.25" y="-25" width="60" height="110.5" as="geometry" />
        </mxCell>
        <mxCell id="jL-DoHjZgoJ6Cv4gA63--77" value="" style="rounded=0;whiteSpace=wrap;html=1;fontFamily=Times New Roman;fontSize=2;strokeColor=#808080;rotation=-90;" parent="jL-DoHjZgoJ6Cv4gA63--76" vertex="1">
          <mxGeometry x="-25" y="65" width="20" height="20.5" as="geometry" />
        </mxCell>
        <mxCell id="jL-DoHjZgoJ6Cv4gA63--78" style="edgeStyle=none;rounded=0;orthogonalLoop=1;jettySize=auto;html=1;exitX=1;exitY=0.5;exitDx=0;exitDy=0;fontFamily=Times New Roman;fontSize=2;endArrow=none;endFill=0;strokeColor=#808080;" parent="jL-DoHjZgoJ6Cv4gA63--76" source="jL-DoHjZgoJ6Cv4gA63--79" edge="1">
          <mxGeometry relative="1" as="geometry">
            <mxPoint x="45" y="45" as="targetPoint" />
          </mxGeometry>
        </mxCell>
        <mxCell id="jL-DoHjZgoJ6Cv4gA63--79" value="" style="rounded=0;whiteSpace=wrap;html=1;fontFamily=Times New Roman;fontSize=2;strokeColor=#808080;rotation=-90;" parent="jL-DoHjZgoJ6Cv4gA63--76" vertex="1">
          <mxGeometry x="5" y="65" width="20" height="20" as="geometry" />
        </mxCell>
        <mxCell id="jL-DoHjZgoJ6Cv4gA63--80" value="" style="rounded=0;whiteSpace=wrap;html=1;fontFamily=Times New Roman;fontSize=2;strokeColor=#808080;rotation=-90;" parent="jL-DoHjZgoJ6Cv4gA63--76" vertex="1">
          <mxGeometry x="35" y="65" width="20" height="20" as="geometry" />
        </mxCell>
        <mxCell id="jL-DoHjZgoJ6Cv4gA63--81" value="" style="rounded=0;whiteSpace=wrap;html=1;fontFamily=Times New Roman;fontSize=2;strokeColor=#808080;rotation=-90;" parent="jL-DoHjZgoJ6Cv4gA63--76" vertex="1">
          <mxGeometry x="65" y="65" width="20" height="20" as="geometry" />
        </mxCell>
        <mxCell id="jL-DoHjZgoJ6Cv4gA63--82" value="" style="rounded=0;whiteSpace=wrap;html=1;fontFamily=Times New Roman;fontSize=2;strokeColor=#808080;rotation=-90;" parent="jL-DoHjZgoJ6Cv4gA63--76" vertex="1">
          <mxGeometry x="-25" y="25" width="20" height="20" as="geometry" />
        </mxCell>
        <mxCell id="jL-DoHjZgoJ6Cv4gA63--83" style="edgeStyle=orthogonalEdgeStyle;rounded=0;orthogonalLoop=1;jettySize=auto;html=1;entryX=0;entryY=0.5;entryDx=0;entryDy=0;fontFamily=Times New Roman;fontSize=2;endArrow=none;endFill=0;strokeColor=#808080;" parent="jL-DoHjZgoJ6Cv4gA63--76" source="jL-DoHjZgoJ6Cv4gA63--77" target="jL-DoHjZgoJ6Cv4gA63--82" edge="1">
          <mxGeometry relative="1" as="geometry" />
        </mxCell>
        <mxCell id="jL-DoHjZgoJ6Cv4gA63--84" style="edgeStyle=none;rounded=0;orthogonalLoop=1;jettySize=auto;html=1;exitX=1;exitY=0.5;exitDx=0;exitDy=0;entryX=0;entryY=0.5;entryDx=0;entryDy=0;fontFamily=Times New Roman;fontSize=2;endArrow=none;endFill=0;strokeColor=#808080;" parent="jL-DoHjZgoJ6Cv4gA63--76" source="jL-DoHjZgoJ6Cv4gA63--79" target="jL-DoHjZgoJ6Cv4gA63--82" edge="1">
          <mxGeometry relative="1" as="geometry" />
        </mxCell>
        <mxCell id="jL-DoHjZgoJ6Cv4gA63--85" style="edgeStyle=none;rounded=0;orthogonalLoop=1;jettySize=auto;html=1;exitX=1;exitY=0.5;exitDx=0;exitDy=0;entryX=0;entryY=0.5;entryDx=0;entryDy=0;fontFamily=Times New Roman;fontSize=2;endArrow=none;endFill=0;strokeColor=#808080;" parent="jL-DoHjZgoJ6Cv4gA63--76" source="jL-DoHjZgoJ6Cv4gA63--80" target="jL-DoHjZgoJ6Cv4gA63--82" edge="1">
          <mxGeometry relative="1" as="geometry" />
        </mxCell>
        <mxCell id="jL-DoHjZgoJ6Cv4gA63--86" style="edgeStyle=none;rounded=0;orthogonalLoop=1;jettySize=auto;html=1;exitX=1;exitY=0.5;exitDx=0;exitDy=0;entryX=0;entryY=0.5;entryDx=0;entryDy=0;fontFamily=Times New Roman;fontSize=2;endArrow=none;endFill=0;strokeColor=#808080;" parent="jL-DoHjZgoJ6Cv4gA63--76" source="jL-DoHjZgoJ6Cv4gA63--81" target="jL-DoHjZgoJ6Cv4gA63--82" edge="1">
          <mxGeometry relative="1" as="geometry" />
        </mxCell>
        <mxCell id="jL-DoHjZgoJ6Cv4gA63--87" value="" style="rounded=0;whiteSpace=wrap;html=1;fontFamily=Times New Roman;fontSize=2;strokeColor=#808080;rotation=-90;" parent="jL-DoHjZgoJ6Cv4gA63--76" vertex="1">
          <mxGeometry x="5" y="25" width="20" height="20" as="geometry" />
        </mxCell>
        <mxCell id="jL-DoHjZgoJ6Cv4gA63--88" style="edgeStyle=none;rounded=0;orthogonalLoop=1;jettySize=auto;html=1;entryX=0;entryY=0.5;entryDx=0;entryDy=0;fontFamily=Times New Roman;fontSize=2;endArrow=none;endFill=0;exitX=1;exitY=0.5;exitDx=0;exitDy=0;strokeColor=#808080;" parent="jL-DoHjZgoJ6Cv4gA63--76" source="jL-DoHjZgoJ6Cv4gA63--77" target="jL-DoHjZgoJ6Cv4gA63--87" edge="1">
          <mxGeometry relative="1" as="geometry" />
        </mxCell>
        <mxCell id="jL-DoHjZgoJ6Cv4gA63--89" style="edgeStyle=none;rounded=0;orthogonalLoop=1;jettySize=auto;html=1;exitX=1;exitY=0.5;exitDx=0;exitDy=0;entryX=0;entryY=0.5;entryDx=0;entryDy=0;fontFamily=Times New Roman;fontSize=2;endArrow=none;endFill=0;strokeColor=#808080;" parent="jL-DoHjZgoJ6Cv4gA63--76" source="jL-DoHjZgoJ6Cv4gA63--79" target="jL-DoHjZgoJ6Cv4gA63--87" edge="1">
          <mxGeometry relative="1" as="geometry" />
        </mxCell>
        <mxCell id="jL-DoHjZgoJ6Cv4gA63--90" style="edgeStyle=none;rounded=0;orthogonalLoop=1;jettySize=auto;html=1;exitX=1;exitY=0.5;exitDx=0;exitDy=0;entryX=0;entryY=0.5;entryDx=0;entryDy=0;fontFamily=Times New Roman;fontSize=2;endArrow=none;endFill=0;strokeColor=#808080;" parent="jL-DoHjZgoJ6Cv4gA63--76" source="jL-DoHjZgoJ6Cv4gA63--80" target="jL-DoHjZgoJ6Cv4gA63--87" edge="1">
          <mxGeometry relative="1" as="geometry" />
        </mxCell>
        <mxCell id="jL-DoHjZgoJ6Cv4gA63--91" style="edgeStyle=none;rounded=0;orthogonalLoop=1;jettySize=auto;html=1;exitX=1;exitY=0.5;exitDx=0;exitDy=0;entryX=0;entryY=0.5;entryDx=0;entryDy=0;fontFamily=Times New Roman;fontSize=2;endArrow=none;endFill=0;strokeColor=#808080;" parent="jL-DoHjZgoJ6Cv4gA63--76" source="jL-DoHjZgoJ6Cv4gA63--81" target="jL-DoHjZgoJ6Cv4gA63--87" edge="1">
          <mxGeometry relative="1" as="geometry" />
        </mxCell>
        <mxCell id="jL-DoHjZgoJ6Cv4gA63--92" value="" style="rounded=0;whiteSpace=wrap;html=1;fontFamily=Times New Roman;fontSize=2;strokeColor=#808080;rotation=-90;" parent="jL-DoHjZgoJ6Cv4gA63--76" vertex="1">
          <mxGeometry x="35" y="25" width="20" height="20" as="geometry" />
        </mxCell>
        <mxCell id="jL-DoHjZgoJ6Cv4gA63--93" style="edgeStyle=none;rounded=0;orthogonalLoop=1;jettySize=auto;html=1;entryX=0;entryY=0.5;entryDx=0;entryDy=0;fontFamily=Times New Roman;fontSize=2;endArrow=none;endFill=0;exitX=1;exitY=0.5;exitDx=0;exitDy=0;strokeColor=#808080;" parent="jL-DoHjZgoJ6Cv4gA63--76" source="jL-DoHjZgoJ6Cv4gA63--77" target="jL-DoHjZgoJ6Cv4gA63--92" edge="1">
          <mxGeometry relative="1" as="geometry" />
        </mxCell>
        <mxCell id="jL-DoHjZgoJ6Cv4gA63--94" style="edgeStyle=none;rounded=0;orthogonalLoop=1;jettySize=auto;html=1;exitX=1;exitY=0.5;exitDx=0;exitDy=0;entryX=0;entryY=0.5;entryDx=0;entryDy=0;fontFamily=Times New Roman;fontSize=2;endArrow=none;endFill=0;strokeColor=#808080;" parent="jL-DoHjZgoJ6Cv4gA63--76" source="jL-DoHjZgoJ6Cv4gA63--80" target="jL-DoHjZgoJ6Cv4gA63--92" edge="1">
          <mxGeometry relative="1" as="geometry" />
        </mxCell>
        <mxCell id="jL-DoHjZgoJ6Cv4gA63--95" style="edgeStyle=none;rounded=0;orthogonalLoop=1;jettySize=auto;html=1;exitX=1;exitY=0.5;exitDx=0;exitDy=0;entryX=0;entryY=0.5;entryDx=0;entryDy=0;fontFamily=Times New Roman;fontSize=2;endArrow=none;endFill=0;strokeColor=#808080;" parent="jL-DoHjZgoJ6Cv4gA63--76" source="jL-DoHjZgoJ6Cv4gA63--81" target="jL-DoHjZgoJ6Cv4gA63--92" edge="1">
          <mxGeometry relative="1" as="geometry" />
        </mxCell>
        <mxCell id="jL-DoHjZgoJ6Cv4gA63--96" value="" style="rounded=0;whiteSpace=wrap;html=1;fontFamily=Times New Roman;fontSize=2;strokeColor=#808080;rotation=-90;" parent="jL-DoHjZgoJ6Cv4gA63--76" vertex="1">
          <mxGeometry x="65" y="25" width="20" height="20" as="geometry" />
        </mxCell>
        <mxCell id="jL-DoHjZgoJ6Cv4gA63--97" style="edgeStyle=none;rounded=0;orthogonalLoop=1;jettySize=auto;html=1;entryX=0;entryY=0.5;entryDx=0;entryDy=0;fontFamily=Times New Roman;fontSize=2;endArrow=none;endFill=0;exitX=1;exitY=0.5;exitDx=0;exitDy=0;strokeColor=#808080;" parent="jL-DoHjZgoJ6Cv4gA63--76" source="jL-DoHjZgoJ6Cv4gA63--77" target="jL-DoHjZgoJ6Cv4gA63--96" edge="1">
          <mxGeometry relative="1" as="geometry" />
        </mxCell>
        <mxCell id="jL-DoHjZgoJ6Cv4gA63--98" style="edgeStyle=none;rounded=0;orthogonalLoop=1;jettySize=auto;html=1;exitX=1;exitY=0.5;exitDx=0;exitDy=0;entryX=0;entryY=0.5;entryDx=0;entryDy=0;fontFamily=Times New Roman;fontSize=2;endArrow=none;endFill=0;strokeColor=#808080;" parent="jL-DoHjZgoJ6Cv4gA63--76" source="jL-DoHjZgoJ6Cv4gA63--79" target="jL-DoHjZgoJ6Cv4gA63--96" edge="1">
          <mxGeometry relative="1" as="geometry" />
        </mxCell>
        <mxCell id="jL-DoHjZgoJ6Cv4gA63--99" style="edgeStyle=none;rounded=0;orthogonalLoop=1;jettySize=auto;html=1;exitX=1;exitY=0.5;exitDx=0;exitDy=0;entryX=0;entryY=0.5;entryDx=0;entryDy=0;fontFamily=Times New Roman;fontSize=2;endArrow=none;endFill=0;strokeColor=#808080;" parent="jL-DoHjZgoJ6Cv4gA63--76" source="jL-DoHjZgoJ6Cv4gA63--80" target="jL-DoHjZgoJ6Cv4gA63--96" edge="1">
          <mxGeometry relative="1" as="geometry" />
        </mxCell>
        <mxCell id="jL-DoHjZgoJ6Cv4gA63--100" style="edgeStyle=none;rounded=0;orthogonalLoop=1;jettySize=auto;html=1;exitX=1;exitY=0.5;exitDx=0;exitDy=0;entryX=0;entryY=0.5;entryDx=0;entryDy=0;fontFamily=Times New Roman;fontSize=2;endArrow=none;endFill=0;strokeColor=#808080;" parent="jL-DoHjZgoJ6Cv4gA63--76" source="jL-DoHjZgoJ6Cv4gA63--81" target="jL-DoHjZgoJ6Cv4gA63--96" edge="1">
          <mxGeometry relative="1" as="geometry" />
        </mxCell>
        <mxCell id="jL-DoHjZgoJ6Cv4gA63--101" style="edgeStyle=none;rounded=0;orthogonalLoop=1;jettySize=auto;html=1;entryX=1;entryY=0.5;entryDx=0;entryDy=0;fontFamily=Times New Roman;fontSize=2;endArrow=none;endFill=0;strokeColor=#808080;" parent="jL-DoHjZgoJ6Cv4gA63--76" source="jL-DoHjZgoJ6Cv4gA63--77" target="jL-DoHjZgoJ6Cv4gA63--77" edge="1">
          <mxGeometry relative="1" as="geometry" />
        </mxCell>
        <mxCell id="jL-DoHjZgoJ6Cv4gA63--102" style="edgeStyle=none;rounded=0;orthogonalLoop=1;jettySize=auto;html=1;exitX=0;exitY=0.5;exitDx=0;exitDy=0;entryX=1;entryY=0.5;entryDx=0;entryDy=0;strokeColor=#808080;fontSize=1;fontColor=#999999;endArrow=none;endFill=0;fontFamily=Times New Roman;" parent="lNjEDPmtAGZLamaPp14r-8" source="jL-DoHjZgoJ6Cv4gA63--106" target="jL-DoHjZgoJ6Cv4gA63--81" edge="1">
          <mxGeometry relative="1" as="geometry" />
        </mxCell>
        <mxCell id="jL-DoHjZgoJ6Cv4gA63--103" style="edgeStyle=none;rounded=0;orthogonalLoop=1;jettySize=auto;html=1;exitX=0;exitY=0.5;exitDx=0;exitDy=0;entryX=1;entryY=0.5;entryDx=0;entryDy=0;strokeColor=#808080;fontSize=1;fontColor=#999999;endArrow=none;endFill=0;fontFamily=Times New Roman;" parent="lNjEDPmtAGZLamaPp14r-8" source="jL-DoHjZgoJ6Cv4gA63--106" target="jL-DoHjZgoJ6Cv4gA63--80" edge="1">
          <mxGeometry relative="1" as="geometry" />
        </mxCell>
        <mxCell id="jL-DoHjZgoJ6Cv4gA63--104" style="edgeStyle=none;rounded=0;orthogonalLoop=1;jettySize=auto;html=1;entryX=1;entryY=0.5;entryDx=0;entryDy=0;strokeColor=#808080;fontSize=1;fontColor=#999999;endArrow=none;endFill=0;exitX=0;exitY=0.5;exitDx=0;exitDy=0;fontFamily=Times New Roman;" parent="lNjEDPmtAGZLamaPp14r-8" source="jL-DoHjZgoJ6Cv4gA63--106" target="jL-DoHjZgoJ6Cv4gA63--79" edge="1">
          <mxGeometry relative="1" as="geometry" />
        </mxCell>
        <mxCell id="jL-DoHjZgoJ6Cv4gA63--105" style="edgeStyle=none;rounded=0;orthogonalLoop=1;jettySize=auto;html=1;entryX=1;entryY=0.5;entryDx=0;entryDy=0;strokeColor=#808080;fontSize=1;fontColor=#999999;endArrow=none;endFill=0;exitX=0;exitY=0.5;exitDx=0;exitDy=0;fontFamily=Times New Roman;" parent="lNjEDPmtAGZLamaPp14r-8" source="jL-DoHjZgoJ6Cv4gA63--106" target="jL-DoHjZgoJ6Cv4gA63--77" edge="1">
          <mxGeometry relative="1" as="geometry" />
        </mxCell>
        <mxCell id="jL-DoHjZgoJ6Cv4gA63--106" value="" style="rounded=0;whiteSpace=wrap;html=1;fontFamily=Times New Roman;fontSize=2;strokeColor=#808080;rotation=-90;" parent="lNjEDPmtAGZLamaPp14r-8" vertex="1">
          <mxGeometry x="122.75" width="20" height="20" as="geometry" />
        </mxCell>
        <mxCell id="jL-DoHjZgoJ6Cv4gA63--107" value="" style="rounded=0;whiteSpace=wrap;html=1;fontFamily=Times New Roman;fontSize=2;strokeColor=#808080;rotation=-90;" parent="lNjEDPmtAGZLamaPp14r-8" vertex="1">
          <mxGeometry x="122.75" y="40" width="20" height="20" as="geometry" />
        </mxCell>
        <mxCell id="jL-DoHjZgoJ6Cv4gA63--108" style="rounded=0;orthogonalLoop=1;jettySize=auto;html=1;strokeColor=#808080;fontSize=1;fontColor=#999999;entryX=1;entryY=0.5;entryDx=0;entryDy=0;exitX=0;exitY=0.5;exitDx=0;exitDy=0;endArrow=none;endFill=0;fontFamily=Times New Roman;" parent="lNjEDPmtAGZLamaPp14r-8" source="jL-DoHjZgoJ6Cv4gA63--96" target="jL-DoHjZgoJ6Cv4gA63--107" edge="1">
          <mxGeometry relative="1" as="geometry">
            <mxPoint x="127.25" y="38" as="targetPoint" />
          </mxGeometry>
        </mxCell>
        <mxCell id="jL-DoHjZgoJ6Cv4gA63--109" style="edgeStyle=none;rounded=0;orthogonalLoop=1;jettySize=auto;html=1;entryX=1;entryY=0.5;entryDx=0;entryDy=0;strokeColor=#808080;fontSize=1;fontColor=#999999;endArrow=none;endFill=0;exitX=0;exitY=0.5;exitDx=0;exitDy=0;fontFamily=Times New Roman;" parent="lNjEDPmtAGZLamaPp14r-8" source="jL-DoHjZgoJ6Cv4gA63--82" target="jL-DoHjZgoJ6Cv4gA63--107" edge="1">
          <mxGeometry relative="1" as="geometry">
            <mxPoint x="37.25" y="-2" as="sourcePoint" />
          </mxGeometry>
        </mxCell>
        <mxCell id="jL-DoHjZgoJ6Cv4gA63--110" style="edgeStyle=none;rounded=0;orthogonalLoop=1;jettySize=auto;html=1;entryX=1;entryY=0.5;entryDx=0;entryDy=0;strokeColor=#808080;fontSize=1;fontColor=#999999;endArrow=none;endFill=0;exitX=0;exitY=0.5;exitDx=0;exitDy=0;fontFamily=Times New Roman;" parent="lNjEDPmtAGZLamaPp14r-8" source="jL-DoHjZgoJ6Cv4gA63--87" target="jL-DoHjZgoJ6Cv4gA63--107" edge="1">
          <mxGeometry relative="1" as="geometry" />
        </mxCell>
        <mxCell id="jL-DoHjZgoJ6Cv4gA63--111" style="edgeStyle=none;rounded=0;orthogonalLoop=1;jettySize=auto;html=1;entryX=1;entryY=0.5;entryDx=0;entryDy=0;strokeColor=#808080;fontSize=1;fontColor=#999999;endArrow=none;endFill=0;exitX=0;exitY=0.5;exitDx=0;exitDy=0;fontFamily=Times New Roman;" parent="lNjEDPmtAGZLamaPp14r-8" source="jL-DoHjZgoJ6Cv4gA63--92" target="jL-DoHjZgoJ6Cv4gA63--107" edge="1">
          <mxGeometry relative="1" as="geometry" />
        </mxCell>
        <mxCell id="jL-DoHjZgoJ6Cv4gA63--112" style="edgeStyle=none;rounded=0;orthogonalLoop=1;jettySize=auto;html=1;entryX=1;entryY=0.5;entryDx=0;entryDy=0;strokeColor=#808080;fontSize=1;fontColor=#999999;endArrow=none;endFill=0;fontFamily=Times New Roman;" parent="lNjEDPmtAGZLamaPp14r-8" source="jL-DoHjZgoJ6Cv4gA63--106" target="jL-DoHjZgoJ6Cv4gA63--107" edge="1">
          <mxGeometry relative="1" as="geometry" />
        </mxCell>
        <mxCell id="jL-DoHjZgoJ6Cv4gA63--113" style="edgeStyle=none;rounded=0;orthogonalLoop=1;jettySize=auto;html=1;entryX=1;entryY=0.5;entryDx=0;entryDy=0;strokeColor=#808080;fontSize=1;fontColor=#999999;endArrow=none;endFill=0;exitX=0;exitY=0.5;exitDx=0;exitDy=0;fontFamily=Times New Roman;" parent="lNjEDPmtAGZLamaPp14r-8" source="jL-DoHjZgoJ6Cv4gA63--96" target="jL-DoHjZgoJ6Cv4gA63--107" edge="1">
          <mxGeometry relative="1" as="geometry" />
        </mxCell>
        <mxCell id="jL-DoHjZgoJ6Cv4gA63--115" value="&lt;b&gt;输入编码器&lt;/b&gt;" style="rounded=1;whiteSpace=wrap;html=1;fontSize=15;fillColor=#eeeeee;strokeColor=#36393d;strokeWidth=0.5;fillStyle=auto;fontFamily=Times New Roman;opacity=70;" parent="1" vertex="1">
          <mxGeometry x="-1356.25" y="1330" width="466.25" height="36.75" as="geometry" />
        </mxCell>
        <mxCell id="lNjEDPmtAGZLamaPp14r-9" value="" style="group" parent="1" vertex="1" connectable="0">
          <mxGeometry x="905" y="1660" width="213.5" height="65.36999999999989" as="geometry" />
        </mxCell>
        <mxCell id="aoJKawos1cx4XAkxpYck-33" value="" style="rounded=0;whiteSpace=wrap;html=1;fontFamily=Times New Roman;fontSize=2;strokeColor=#808080;rotation=-90;container=0;" parent="lNjEDPmtAGZLamaPp14r-9" vertex="1">
          <mxGeometry x="122.75" width="20" height="20" as="geometry" />
        </mxCell>
        <mxCell id="aoJKawos1cx4XAkxpYck-34" value="" style="rounded=0;whiteSpace=wrap;html=1;fontFamily=Times New Roman;fontSize=2;strokeColor=#808080;rotation=-90;container=0;" parent="lNjEDPmtAGZLamaPp14r-9" vertex="1">
          <mxGeometry x="122.75" y="40" width="20" height="20" as="geometry" />
        </mxCell>
        <mxCell id="aoJKawos1cx4XAkxpYck-39" style="edgeStyle=none;rounded=0;orthogonalLoop=1;jettySize=auto;html=1;strokeColor=#808080;fontSize=1;fontColor=#999999;endArrow=none;endFill=0;fontFamily=Times New Roman;entryX=1;entryY=0.5;entryDx=0;entryDy=0;" parent="lNjEDPmtAGZLamaPp14r-9" source="aoJKawos1cx4XAkxpYck-33" target="aoJKawos1cx4XAkxpYck-34" edge="1">
          <mxGeometry relative="1" as="geometry">
            <mxPoint x="131.5" y="38.61999999999989" as="targetPoint" />
          </mxGeometry>
        </mxCell>
        <mxCell id="aoJKawos1cx4XAkxpYck-4" value="" style="rounded=0;whiteSpace=wrap;html=1;fontFamily=Times New Roman;fontSize=2;strokeColor=#808080;rotation=-90;container=0;" parent="lNjEDPmtAGZLamaPp14r-9" vertex="1">
          <mxGeometry x="0.25" y="40" width="20" height="20.5" as="geometry" />
        </mxCell>
        <mxCell id="aoJKawos1cx4XAkxpYck-32" style="edgeStyle=none;rounded=0;orthogonalLoop=1;jettySize=auto;html=1;entryX=1;entryY=0.5;entryDx=0;entryDy=0;strokeColor=#808080;fontSize=1;fontColor=#999999;endArrow=none;endFill=0;exitX=0;exitY=0.5;exitDx=0;exitDy=0;fontFamily=Times New Roman;" parent="lNjEDPmtAGZLamaPp14r-9" source="aoJKawos1cx4XAkxpYck-33" target="aoJKawos1cx4XAkxpYck-4" edge="1">
          <mxGeometry relative="1" as="geometry" />
        </mxCell>
        <mxCell id="aoJKawos1cx4XAkxpYck-5" style="edgeStyle=none;rounded=0;orthogonalLoop=1;jettySize=auto;html=1;exitX=1;exitY=0.5;exitDx=0;exitDy=0;fontFamily=Times New Roman;fontSize=2;endArrow=none;endFill=0;strokeColor=#808080;" parent="lNjEDPmtAGZLamaPp14r-9" source="aoJKawos1cx4XAkxpYck-6" edge="1">
          <mxGeometry relative="1" as="geometry">
            <mxPoint x="70.25" y="20" as="targetPoint" />
          </mxGeometry>
        </mxCell>
        <mxCell id="aoJKawos1cx4XAkxpYck-6" value="" style="rounded=0;whiteSpace=wrap;html=1;fontFamily=Times New Roman;fontSize=2;strokeColor=#808080;rotation=-90;container=0;" parent="lNjEDPmtAGZLamaPp14r-9" vertex="1">
          <mxGeometry x="30.25" y="40" width="20" height="20" as="geometry" />
        </mxCell>
        <mxCell id="aoJKawos1cx4XAkxpYck-31" style="edgeStyle=none;rounded=0;orthogonalLoop=1;jettySize=auto;html=1;entryX=1;entryY=0.5;entryDx=0;entryDy=0;strokeColor=#808080;fontSize=1;fontColor=#999999;endArrow=none;endFill=0;exitX=0;exitY=0.5;exitDx=0;exitDy=0;fontFamily=Times New Roman;" parent="lNjEDPmtAGZLamaPp14r-9" source="aoJKawos1cx4XAkxpYck-33" target="aoJKawos1cx4XAkxpYck-6" edge="1">
          <mxGeometry relative="1" as="geometry" />
        </mxCell>
        <mxCell id="aoJKawos1cx4XAkxpYck-7" value="" style="rounded=0;whiteSpace=wrap;html=1;fontFamily=Times New Roman;fontSize=2;strokeColor=#808080;rotation=-90;container=0;" parent="lNjEDPmtAGZLamaPp14r-9" vertex="1">
          <mxGeometry x="60.25" y="40" width="20" height="20" as="geometry" />
        </mxCell>
        <mxCell id="aoJKawos1cx4XAkxpYck-8" value="" style="rounded=0;whiteSpace=wrap;html=1;fontFamily=Times New Roman;fontSize=2;strokeColor=#808080;rotation=-90;container=0;" parent="lNjEDPmtAGZLamaPp14r-9" vertex="1">
          <mxGeometry x="90.25" y="40" width="20" height="20" as="geometry" />
        </mxCell>
        <mxCell id="aoJKawos1cx4XAkxpYck-9" value="" style="rounded=0;whiteSpace=wrap;html=1;fontFamily=Times New Roman;fontSize=2;strokeColor=#808080;rotation=-90;container=0;" parent="lNjEDPmtAGZLamaPp14r-9" vertex="1">
          <mxGeometry x="0.25" width="20" height="20" as="geometry" />
        </mxCell>
        <mxCell id="aoJKawos1cx4XAkxpYck-10" style="edgeStyle=orthogonalEdgeStyle;rounded=0;orthogonalLoop=1;jettySize=auto;html=1;entryX=0;entryY=0.5;entryDx=0;entryDy=0;fontFamily=Times New Roman;fontSize=2;endArrow=none;endFill=0;strokeColor=#808080;" parent="lNjEDPmtAGZLamaPp14r-9" source="aoJKawos1cx4XAkxpYck-4" target="aoJKawos1cx4XAkxpYck-9" edge="1">
          <mxGeometry relative="1" as="geometry" />
        </mxCell>
        <mxCell id="aoJKawos1cx4XAkxpYck-14" value="" style="rounded=0;whiteSpace=wrap;html=1;fontFamily=Times New Roman;fontSize=2;strokeColor=#808080;rotation=-90;container=0;" parent="lNjEDPmtAGZLamaPp14r-9" vertex="1">
          <mxGeometry x="30.25" width="20" height="20" as="geometry" />
        </mxCell>
        <mxCell id="aoJKawos1cx4XAkxpYck-15" style="edgeStyle=none;rounded=0;orthogonalLoop=1;jettySize=auto;html=1;entryX=0;entryY=0.5;entryDx=0;entryDy=0;fontFamily=Times New Roman;fontSize=2;endArrow=none;endFill=0;exitX=1;exitY=0.5;exitDx=0;exitDy=0;strokeColor=#808080;" parent="lNjEDPmtAGZLamaPp14r-9" source="aoJKawos1cx4XAkxpYck-4" target="aoJKawos1cx4XAkxpYck-14" edge="1">
          <mxGeometry relative="1" as="geometry" />
        </mxCell>
        <mxCell id="aoJKawos1cx4XAkxpYck-16" style="edgeStyle=none;rounded=0;orthogonalLoop=1;jettySize=auto;html=1;exitX=1;exitY=0.5;exitDx=0;exitDy=0;entryX=0;entryY=0.5;entryDx=0;entryDy=0;fontFamily=Times New Roman;fontSize=2;endArrow=none;endFill=0;strokeColor=#808080;" parent="lNjEDPmtAGZLamaPp14r-9" source="aoJKawos1cx4XAkxpYck-6" target="aoJKawos1cx4XAkxpYck-14" edge="1">
          <mxGeometry relative="1" as="geometry" />
        </mxCell>
        <mxCell id="aoJKawos1cx4XAkxpYck-19" value="" style="rounded=0;whiteSpace=wrap;html=1;fontFamily=Times New Roman;fontSize=2;strokeColor=#808080;rotation=-90;container=0;" parent="lNjEDPmtAGZLamaPp14r-9" vertex="1">
          <mxGeometry x="60.25" width="20" height="20" as="geometry" />
        </mxCell>
        <mxCell id="aoJKawos1cx4XAkxpYck-20" style="edgeStyle=none;rounded=0;orthogonalLoop=1;jettySize=auto;html=1;entryX=0;entryY=0.5;entryDx=0;entryDy=0;fontFamily=Times New Roman;fontSize=2;endArrow=none;endFill=0;exitX=1;exitY=0.5;exitDx=0;exitDy=0;strokeColor=#808080;" parent="lNjEDPmtAGZLamaPp14r-9" source="aoJKawos1cx4XAkxpYck-4" target="aoJKawos1cx4XAkxpYck-19" edge="1">
          <mxGeometry relative="1" as="geometry" />
        </mxCell>
        <mxCell id="aoJKawos1cx4XAkxpYck-21" style="edgeStyle=none;rounded=0;orthogonalLoop=1;jettySize=auto;html=1;exitX=1;exitY=0.5;exitDx=0;exitDy=0;entryX=0;entryY=0.5;entryDx=0;entryDy=0;fontFamily=Times New Roman;fontSize=2;endArrow=none;endFill=0;strokeColor=#808080;" parent="lNjEDPmtAGZLamaPp14r-9" source="aoJKawos1cx4XAkxpYck-7" target="aoJKawos1cx4XAkxpYck-19" edge="1">
          <mxGeometry relative="1" as="geometry" />
        </mxCell>
        <mxCell id="aoJKawos1cx4XAkxpYck-23" value="" style="rounded=0;whiteSpace=wrap;html=1;fontFamily=Times New Roman;fontSize=2;strokeColor=#808080;rotation=-90;container=0;" parent="lNjEDPmtAGZLamaPp14r-9" vertex="1">
          <mxGeometry x="90.25" width="20" height="20" as="geometry" />
        </mxCell>
        <mxCell id="aoJKawos1cx4XAkxpYck-24" style="edgeStyle=none;rounded=0;orthogonalLoop=1;jettySize=auto;html=1;entryX=0;entryY=0.5;entryDx=0;entryDy=0;fontFamily=Times New Roman;fontSize=2;endArrow=none;endFill=0;exitX=1;exitY=0.5;exitDx=0;exitDy=0;strokeColor=#808080;" parent="lNjEDPmtAGZLamaPp14r-9" source="aoJKawos1cx4XAkxpYck-4" target="aoJKawos1cx4XAkxpYck-23" edge="1">
          <mxGeometry relative="1" as="geometry" />
        </mxCell>
        <mxCell id="aoJKawos1cx4XAkxpYck-25" style="edgeStyle=none;rounded=0;orthogonalLoop=1;jettySize=auto;html=1;exitX=1;exitY=0.5;exitDx=0;exitDy=0;entryX=0;entryY=0.5;entryDx=0;entryDy=0;fontFamily=Times New Roman;fontSize=2;endArrow=none;endFill=0;strokeColor=#808080;" parent="lNjEDPmtAGZLamaPp14r-9" source="aoJKawos1cx4XAkxpYck-6" target="aoJKawos1cx4XAkxpYck-23" edge="1">
          <mxGeometry relative="1" as="geometry" />
        </mxCell>
        <mxCell id="aoJKawos1cx4XAkxpYck-26" style="edgeStyle=none;rounded=0;orthogonalLoop=1;jettySize=auto;html=1;exitX=1;exitY=0.5;exitDx=0;exitDy=0;entryX=0;entryY=0.5;entryDx=0;entryDy=0;fontFamily=Times New Roman;fontSize=2;endArrow=none;endFill=0;strokeColor=#808080;" parent="lNjEDPmtAGZLamaPp14r-9" source="aoJKawos1cx4XAkxpYck-7" target="aoJKawos1cx4XAkxpYck-23" edge="1">
          <mxGeometry relative="1" as="geometry" />
        </mxCell>
        <mxCell id="aoJKawos1cx4XAkxpYck-27" style="edgeStyle=none;rounded=0;orthogonalLoop=1;jettySize=auto;html=1;exitX=1;exitY=0.5;exitDx=0;exitDy=0;entryX=0;entryY=0.5;entryDx=0;entryDy=0;fontFamily=Times New Roman;fontSize=2;endArrow=none;endFill=0;strokeColor=#808080;" parent="lNjEDPmtAGZLamaPp14r-9" source="aoJKawos1cx4XAkxpYck-8" target="aoJKawos1cx4XAkxpYck-23" edge="1">
          <mxGeometry relative="1" as="geometry" />
        </mxCell>
        <mxCell id="aoJKawos1cx4XAkxpYck-30" style="edgeStyle=none;rounded=0;orthogonalLoop=1;jettySize=auto;html=1;exitX=0;exitY=0.5;exitDx=0;exitDy=0;entryX=1;entryY=0.5;entryDx=0;entryDy=0;strokeColor=#808080;fontSize=1;fontColor=#999999;endArrow=none;endFill=0;fontFamily=Times New Roman;" parent="lNjEDPmtAGZLamaPp14r-9" source="aoJKawos1cx4XAkxpYck-33" target="aoJKawos1cx4XAkxpYck-7" edge="1">
          <mxGeometry relative="1" as="geometry" />
        </mxCell>
        <mxCell id="aoJKawos1cx4XAkxpYck-28" style="edgeStyle=none;rounded=0;orthogonalLoop=1;jettySize=auto;html=1;entryX=1;entryY=0.5;entryDx=0;entryDy=0;fontFamily=Times New Roman;fontSize=2;endArrow=none;endFill=0;strokeColor=#808080;" parent="lNjEDPmtAGZLamaPp14r-9" source="aoJKawos1cx4XAkxpYck-4" target="aoJKawos1cx4XAkxpYck-4" edge="1">
          <mxGeometry relative="1" as="geometry" />
        </mxCell>
        <mxCell id="aoJKawos1cx4XAkxpYck-29" style="edgeStyle=none;rounded=0;orthogonalLoop=1;jettySize=auto;html=1;exitX=0;exitY=0.5;exitDx=0;exitDy=0;entryX=1;entryY=0.5;entryDx=0;entryDy=0;strokeColor=#808080;fontSize=1;fontColor=#999999;endArrow=none;endFill=0;fontFamily=Times New Roman;" parent="lNjEDPmtAGZLamaPp14r-9" source="aoJKawos1cx4XAkxpYck-33" target="aoJKawos1cx4XAkxpYck-8" edge="1">
          <mxGeometry relative="1" as="geometry" />
        </mxCell>
        <mxCell id="jL-DoHjZgoJ6Cv4gA63--70" value="&lt;b&gt;目标解码器&lt;/b&gt;" style="rounded=1;whiteSpace=wrap;html=1;fontSize=15;fillColor=#eeeeee;strokeColor=#36393d;strokeWidth=0.5;fillStyle=auto;fontFamily=Times New Roman;opacity=80;" parent="1" vertex="1">
          <mxGeometry x="-837" y="1330" width="350" height="37.75" as="geometry" />
        </mxCell>
        <mxCell id="lNjEDPmtAGZLamaPp14r-118" value="&lt;font style=&quot;font-size: 13px;&quot; face=&quot;Times New Roman&quot;&gt;词元嵌入&lt;/font&gt;" style="text;html=1;align=center;verticalAlign=middle;resizable=0;points=[];autosize=1;strokeColor=none;fillColor=none;fontFamily=Courier New;" parent="1" vertex="1">
          <mxGeometry x="-1435" y="1382.82" width="80" height="30" as="geometry" />
        </mxCell>
        <mxCell id="lNjEDPmtAGZLamaPp14r-119" value="&lt;font style=&quot;font-size: 13px;&quot; face=&quot;Times New Roman&quot;&gt;独立位置嵌入&lt;/font&gt;" style="text;html=1;align=center;verticalAlign=middle;resizable=0;points=[];autosize=1;strokeColor=none;fillColor=none;fontFamily=Courier New;" parent="1" vertex="1">
          <mxGeometry x="-1447" y="1425" width="100" height="30" as="geometry" />
        </mxCell>
        <mxCell id="lNjEDPmtAGZLamaPp14r-120" value="&lt;font style=&quot;font-size: 13px;&quot; face=&quot;Times New Roman&quot;&gt;语种嵌入&lt;/font&gt;" style="text;html=1;align=center;verticalAlign=middle;resizable=0;points=[];autosize=1;strokeColor=none;fillColor=none;fontFamily=Courier New;" parent="1" vertex="1">
          <mxGeometry x="-1437.25" y="1466" width="80" height="30" as="geometry" />
        </mxCell>
        <mxCell id="lNjEDPmtAGZLamaPp14r-121" value="" style="shape=cross;whiteSpace=wrap;html=1;size=0.17183098591549423;fillColor=#000000;strokeColor=#000000;strokeWidth=0.4;" parent="1" vertex="1">
          <mxGeometry x="-1346.13" y="1417" width="10" height="10" as="geometry" />
        </mxCell>
        <mxCell id="lNjEDPmtAGZLamaPp14r-122" value="" style="shape=cross;whiteSpace=wrap;html=1;size=0.17183098591549423;fillColor=#000000;strokeColor=#000000;strokeWidth=0.4;" parent="1" vertex="1">
          <mxGeometry x="-1346.13" y="1457" width="10" height="10" as="geometry" />
        </mxCell>
        <mxCell id="lNjEDPmtAGZLamaPp14r-127" value="" style="shape=cross;whiteSpace=wrap;html=1;size=0.17183098591549423;fillColor=#000000;strokeColor=#000000;strokeWidth=0.4;" parent="1" vertex="1">
          <mxGeometry x="-1301.1200000000001" y="1417" width="10" height="10" as="geometry" />
        </mxCell>
        <mxCell id="lNjEDPmtAGZLamaPp14r-128" value="" style="shape=cross;whiteSpace=wrap;html=1;size=0.17183098591549423;fillColor=#000000;strokeColor=#000000;strokeWidth=0.4;" parent="1" vertex="1">
          <mxGeometry x="-1303" y="1457" width="10" height="10" as="geometry" />
        </mxCell>
        <mxCell id="lNjEDPmtAGZLamaPp14r-131" value="" style="shape=cross;whiteSpace=wrap;html=1;size=0.17183098591549423;fillColor=#000000;strokeColor=#000000;strokeWidth=0.4;" parent="1" vertex="1">
          <mxGeometry x="-1262.1200000000001" y="1417" width="10" height="10" as="geometry" />
        </mxCell>
        <mxCell id="lNjEDPmtAGZLamaPp14r-132" value="" style="shape=cross;whiteSpace=wrap;html=1;size=0.17183098591549423;fillColor=#000000;strokeColor=#000000;strokeWidth=0.4;" parent="1" vertex="1">
          <mxGeometry x="-1260" y="1458" width="10" height="10" as="geometry" />
        </mxCell>
        <mxCell id="lNjEDPmtAGZLamaPp14r-133" value="" style="shape=cross;whiteSpace=wrap;html=1;size=0.17183098591549423;fillColor=#000000;strokeColor=#000000;strokeWidth=0.4;" parent="1" vertex="1">
          <mxGeometry x="-1218.1200000000001" y="1417" width="10" height="10" as="geometry" />
        </mxCell>
        <mxCell id="lNjEDPmtAGZLamaPp14r-134" value="" style="shape=cross;whiteSpace=wrap;html=1;size=0.17183098591549423;fillColor=#000000;strokeColor=#000000;strokeWidth=0.4;" parent="1" vertex="1">
          <mxGeometry x="-1216" y="1458" width="10" height="10" as="geometry" />
        </mxCell>
        <mxCell id="lNjEDPmtAGZLamaPp14r-135" value="" style="shape=cross;whiteSpace=wrap;html=1;size=0.17183098591549423;fillColor=#000000;strokeColor=#000000;strokeWidth=0.4;" parent="1" vertex="1">
          <mxGeometry x="-1175.1200000000001" y="1417" width="10" height="10" as="geometry" />
        </mxCell>
        <mxCell id="lNjEDPmtAGZLamaPp14r-136" value="" style="shape=cross;whiteSpace=wrap;html=1;size=0.17183098591549423;fillColor=#000000;strokeColor=#000000;strokeWidth=0.4;" parent="1" vertex="1">
          <mxGeometry x="-1173" y="1458" width="10" height="10" as="geometry" />
        </mxCell>
        <mxCell id="lNjEDPmtAGZLamaPp14r-137" value="" style="shape=cross;whiteSpace=wrap;html=1;size=0.17183098591549423;fillColor=#000000;strokeColor=#000000;strokeWidth=0.4;" parent="1" vertex="1">
          <mxGeometry x="-1131.1200000000001" y="1417" width="10" height="10" as="geometry" />
        </mxCell>
        <mxCell id="lNjEDPmtAGZLamaPp14r-138" value="" style="shape=cross;whiteSpace=wrap;html=1;size=0.17183098591549423;fillColor=#000000;strokeColor=#000000;strokeWidth=0.4;" parent="1" vertex="1">
          <mxGeometry x="-1130" y="1458" width="10" height="10" as="geometry" />
        </mxCell>
        <mxCell id="lNjEDPmtAGZLamaPp14r-141" value="" style="shape=cross;whiteSpace=wrap;html=1;size=0.17183098591549423;fillColor=#000000;strokeColor=#000000;strokeWidth=0.4;" parent="1" vertex="1">
          <mxGeometry x="-1088.1200000000001" y="1417" width="10" height="10" as="geometry" />
        </mxCell>
        <mxCell id="lNjEDPmtAGZLamaPp14r-142" value="" style="shape=cross;whiteSpace=wrap;html=1;size=0.17183098591549423;fillColor=#000000;strokeColor=#000000;strokeWidth=0.4;" parent="1" vertex="1">
          <mxGeometry x="-1086" y="1458" width="10" height="10" as="geometry" />
        </mxCell>
        <mxCell id="lNjEDPmtAGZLamaPp14r-143" value="" style="shape=cross;whiteSpace=wrap;html=1;size=0.17183098591549423;fillColor=#000000;strokeColor=#000000;strokeWidth=0.4;" parent="1" vertex="1">
          <mxGeometry x="-1044.1200000000001" y="1417" width="10" height="10" as="geometry" />
        </mxCell>
        <mxCell id="lNjEDPmtAGZLamaPp14r-144" value="" style="shape=cross;whiteSpace=wrap;html=1;size=0.17183098591549423;fillColor=#000000;strokeColor=#000000;strokeWidth=0.4;" parent="1" vertex="1">
          <mxGeometry x="-1043" y="1458" width="10" height="10" as="geometry" />
        </mxCell>
        <mxCell id="lNjEDPmtAGZLamaPp14r-145" value="" style="shape=cross;whiteSpace=wrap;html=1;size=0.17183098591549423;fillColor=#000000;strokeColor=#000000;strokeWidth=0.4;" parent="1" vertex="1">
          <mxGeometry x="-1000.1200000000001" y="1417" width="10" height="10" as="geometry" />
        </mxCell>
        <mxCell id="lNjEDPmtAGZLamaPp14r-146" value="" style="shape=cross;whiteSpace=wrap;html=1;size=0.17183098591549423;fillColor=#000000;strokeColor=#000000;strokeWidth=0.4;" parent="1" vertex="1">
          <mxGeometry x="-1000" y="1458" width="10" height="10" as="geometry" />
        </mxCell>
        <mxCell id="lNjEDPmtAGZLamaPp14r-149" value="" style="shape=cross;whiteSpace=wrap;html=1;size=0.17183098591549423;fillColor=#000000;strokeColor=#000000;strokeWidth=0.4;" parent="1" vertex="1">
          <mxGeometry x="-957.1200000000001" y="1417" width="10" height="10" as="geometry" />
        </mxCell>
        <mxCell id="lNjEDPmtAGZLamaPp14r-150" value="" style="shape=cross;whiteSpace=wrap;html=1;size=0.17183098591549423;fillColor=#000000;strokeColor=#000000;strokeWidth=0.4;" parent="1" vertex="1">
          <mxGeometry x="-956" y="1458" width="10" height="10" as="geometry" />
        </mxCell>
        <mxCell id="lNjEDPmtAGZLamaPp14r-151" value="" style="shape=cross;whiteSpace=wrap;html=1;size=0.17183098591549423;fillColor=#000000;strokeColor=#000000;strokeWidth=0.4;" parent="1" vertex="1">
          <mxGeometry x="-913.1200000000001" y="1417" width="10" height="10" as="geometry" />
        </mxCell>
        <mxCell id="lNjEDPmtAGZLamaPp14r-152" value="" style="shape=cross;whiteSpace=wrap;html=1;size=0.17183098591549423;fillColor=#000000;strokeColor=#000000;strokeWidth=0.4;" parent="1" vertex="1">
          <mxGeometry x="-913.1200000000001" y="1458" width="10" height="10" as="geometry" />
        </mxCell>
        <mxCell id="lNjEDPmtAGZLamaPp14r-257" value="&lt;font style=&quot;font-size: 12px;&quot;&gt;the&lt;/font&gt;" style="rounded=1;whiteSpace=wrap;html=1;fontFamily=Times New Roman;fontSize=2;strokeColor=#000000;rotation=0;container=0;align=center;verticalAlign=middle;horizontal=1;spacingTop=-2;fillColor=#FECCCB;strokeWidth=0.2;" parent="1" vertex="1">
          <mxGeometry x="-657.12" y="1391.82" width="44" height="20" as="geometry" />
        </mxCell>
        <mxCell id="lNjEDPmtAGZLamaPp14r-266" value="&lt;span style=&quot;font-size: 12px;&quot;&gt;0&lt;/span&gt;" style="rounded=1;whiteSpace=wrap;html=1;fontFamily=Times New Roman;fontSize=2;strokeColor=#000000;rotation=0;container=0;fillColor=#CCE2FF;strokeWidth=0.2;" parent="1" vertex="1">
          <mxGeometry x="-834" y="1431" width="44" height="20" as="geometry" />
        </mxCell>
        <mxCell id="lNjEDPmtAGZLamaPp14r-267" value="&lt;font style=&quot;font-size: 12px;&quot;&gt;1&lt;/font&gt;" style="rounded=1;whiteSpace=wrap;html=1;fontFamily=Times New Roman;fontSize=2;strokeColor=#000000;rotation=0;container=0;fillColor=#CCE2FF;strokeWidth=0.2;" parent="1" vertex="1">
          <mxGeometry x="-776.87" y="1431" width="44" height="20" as="geometry" />
        </mxCell>
        <mxCell id="lNjEDPmtAGZLamaPp14r-268" value="&lt;font style=&quot;font-size: 12px;&quot;&gt;2&lt;/font&gt;" style="rounded=1;whiteSpace=wrap;html=1;fontFamily=Times New Roman;fontSize=2;strokeColor=#000000;rotation=0;container=0;fillColor=#CCE2FF;strokeWidth=0.2;" parent="1" vertex="1">
          <mxGeometry x="-715.25" y="1431" width="44" height="20" as="geometry" />
        </mxCell>
        <mxCell id="lNjEDPmtAGZLamaPp14r-269" value="&lt;font style=&quot;font-size: 12px;&quot;&gt;4&lt;/font&gt;" style="rounded=1;whiteSpace=wrap;html=1;fontFamily=Times New Roman;fontSize=2;strokeColor=#000000;rotation=0;container=0;fillColor=#CCE2FF;strokeWidth=0.2;" parent="1" vertex="1">
          <mxGeometry x="-598" y="1431" width="44" height="20" as="geometry" />
        </mxCell>
        <mxCell id="lNjEDPmtAGZLamaPp14r-270" value="&lt;font style=&quot;font-size: 12px;&quot;&gt;5&lt;/font&gt;" style="rounded=1;whiteSpace=wrap;html=1;fontFamily=Times New Roman;fontSize=2;strokeColor=#000000;rotation=0;container=0;fillColor=#CCE2FF;strokeWidth=0.2;" parent="1" vertex="1">
          <mxGeometry x="-534" y="1431" width="44" height="20" as="geometry" />
        </mxCell>
        <mxCell id="lNjEDPmtAGZLamaPp14r-276" value="&lt;font style=&quot;font-size: 12px;&quot;&gt;3&lt;/font&gt;" style="rounded=1;whiteSpace=wrap;html=1;fontFamily=Times New Roman;fontSize=2;strokeColor=#000000;rotation=0;container=0;fillColor=#CCE2FF;strokeWidth=0.2;" parent="1" vertex="1">
          <mxGeometry x="-657.12" y="1431" width="44" height="20" as="geometry" />
        </mxCell>
        <mxCell id="lNjEDPmtAGZLamaPp14r-278" value="&lt;span style=&quot;font-size: 12px;&quot;&gt;en&lt;/span&gt;" style="rounded=1;whiteSpace=wrap;html=1;fontFamily=Times New Roman;fontSize=2;strokeColor=#000000;rotation=0;container=0;strokeWidth=0.2;fillColor=#75c3b7;shadow=0;glass=0;" parent="1" vertex="1">
          <mxGeometry x="-834" y="1474" width="44" height="20" as="geometry" />
        </mxCell>
        <mxCell id="lNjEDPmtAGZLamaPp14r-279" value="&lt;font style=&quot;font-size: 12px;&quot;&gt;en&lt;/font&gt;" style="rounded=1;whiteSpace=wrap;html=1;fontFamily=Times New Roman;fontSize=2;strokeColor=#000000;rotation=0;container=0;strokeWidth=0.2;fillColor=#75c3b7;shadow=0;glass=0;" parent="1" vertex="1">
          <mxGeometry x="-776.87" y="1474" width="44" height="20" as="geometry" />
        </mxCell>
        <mxCell id="lNjEDPmtAGZLamaPp14r-280" value="&lt;font style=&quot;font-size: 12px;&quot;&gt;en&lt;/font&gt;" style="rounded=1;whiteSpace=wrap;html=1;fontFamily=Times New Roman;fontSize=2;strokeColor=#000000;rotation=0;container=0;strokeWidth=0.2;fillColor=#75c3b7;shadow=0;glass=0;" parent="1" vertex="1">
          <mxGeometry x="-715.75" y="1474" width="44" height="20" as="geometry" />
        </mxCell>
        <mxCell id="lNjEDPmtAGZLamaPp14r-281" value="&lt;font style=&quot;font-size: 12px;&quot;&gt;en&lt;/font&gt;" style="rounded=1;whiteSpace=wrap;html=1;fontFamily=Times New Roman;fontSize=2;strokeColor=#000000;rotation=0;container=0;strokeWidth=0.2;fillColor=#75c3b7;shadow=0;glass=0;" parent="1" vertex="1">
          <mxGeometry x="-596.99" y="1474" width="44" height="20" as="geometry" />
        </mxCell>
        <mxCell id="lNjEDPmtAGZLamaPp14r-282" value="&lt;font style=&quot;font-size: 12px;&quot;&gt;en&lt;/font&gt;" style="rounded=1;whiteSpace=wrap;html=1;fontFamily=Times New Roman;fontSize=2;strokeColor=#000000;rotation=0;container=0;strokeWidth=0.2;fillColor=#75c3b7;shadow=0;glass=0;" parent="1" vertex="1">
          <mxGeometry x="-534" y="1474" width="44" height="20" as="geometry" />
        </mxCell>
        <mxCell id="lNjEDPmtAGZLamaPp14r-288" value="&lt;span style=&quot;font-size: 12px;&quot;&gt;en&lt;/span&gt;" style="rounded=1;whiteSpace=wrap;html=1;fontFamily=Times New Roman;fontSize=2;strokeColor=#000000;rotation=0;container=0;strokeWidth=0.2;fillColor=#75c3b7;shadow=0;glass=0;" parent="1" vertex="1">
          <mxGeometry x="-657.12" y="1474" width="44" height="20" as="geometry" />
        </mxCell>
        <mxCell id="lNjEDPmtAGZLamaPp14r-290" value="" style="shape=cross;whiteSpace=wrap;html=1;size=0.17183098591549423;fillColor=#000000;strokeColor=#000000;strokeWidth=0.4;" parent="1" vertex="1">
          <mxGeometry x="-816.0000000000001" y="1416" width="10" height="10" as="geometry" />
        </mxCell>
        <mxCell id="lNjEDPmtAGZLamaPp14r-292" value="" style="shape=cross;whiteSpace=wrap;html=1;size=0.17183098591549423;fillColor=#000000;strokeColor=#000000;strokeWidth=0.4;" parent="1" vertex="1">
          <mxGeometry x="-758.0000000000001" y="1416.82" width="10" height="10" as="geometry" />
        </mxCell>
        <mxCell id="lNjEDPmtAGZLamaPp14r-294" value="" style="shape=cross;whiteSpace=wrap;html=1;size=0.17183098591549423;fillColor=#000000;strokeColor=#000000;strokeWidth=0.4;" parent="1" vertex="1">
          <mxGeometry x="-698.2500000000001" y="1416" width="10" height="10" as="geometry" />
        </mxCell>
        <mxCell id="lNjEDPmtAGZLamaPp14r-296" value="" style="shape=cross;whiteSpace=wrap;html=1;size=0.17183098591549423;fillColor=#000000;strokeColor=#000000;strokeWidth=0.4;" parent="1" vertex="1">
          <mxGeometry x="-639.9900000000001" y="1416.82" width="10" height="10" as="geometry" />
        </mxCell>
        <mxCell id="lNjEDPmtAGZLamaPp14r-298" value="" style="shape=cross;whiteSpace=wrap;html=1;size=0.17183098591549423;fillColor=#000000;strokeColor=#000000;strokeWidth=0.4;" parent="1" vertex="1">
          <mxGeometry x="-579.9900000000001" y="1416.82" width="10" height="10" as="geometry" />
        </mxCell>
        <mxCell id="lNjEDPmtAGZLamaPp14r-300" value="" style="shape=cross;whiteSpace=wrap;html=1;size=0.17183098591549423;fillColor=#000000;strokeColor=#000000;strokeWidth=0.4;" parent="1" vertex="1">
          <mxGeometry x="-517.0000000000001" y="1416" width="10" height="10" as="geometry" />
        </mxCell>
        <mxCell id="lNjEDPmtAGZLamaPp14r-320" value="" style="shape=flexArrow;endArrow=classic;html=1;rounded=0;width=1.8749999999999998;endSize=1.4386363636363635;endWidth=4.187983069562017;fillColor=#000000;strokeColor=#000000;strokeWidth=0.4;" parent="1" edge="1">
          <mxGeometry width="50" height="50" relative="1" as="geometry">
            <mxPoint x="-1340.2" y="1383.82" as="sourcePoint" />
            <mxPoint x="-1340.2" y="1367" as="targetPoint" />
          </mxGeometry>
        </mxCell>
        <mxCell id="lNjEDPmtAGZLamaPp14r-321" value="" style="shape=flexArrow;endArrow=classic;html=1;rounded=0;width=1.8749999999999998;endSize=1.4386363636363635;endWidth=4.187983069562017;fillColor=#000000;strokeColor=#000000;strokeWidth=0.4;" parent="1" edge="1">
          <mxGeometry width="50" height="50" relative="1" as="geometry">
            <mxPoint x="-1296.28" y="1384.82" as="sourcePoint" />
            <mxPoint x="-1296.28" y="1368" as="targetPoint" />
          </mxGeometry>
        </mxCell>
        <mxCell id="lNjEDPmtAGZLamaPp14r-323" value="" style="shape=flexArrow;endArrow=classic;html=1;rounded=0;width=1.8749999999999998;endSize=1.4386363636363635;endWidth=4.187983069562017;fillColor=#000000;strokeColor=#000000;strokeWidth=0.4;" parent="1" edge="1">
          <mxGeometry width="50" height="50" relative="1" as="geometry">
            <mxPoint x="-1257.28" y="1384.82" as="sourcePoint" />
            <mxPoint x="-1257.28" y="1368" as="targetPoint" />
          </mxGeometry>
        </mxCell>
        <mxCell id="lNjEDPmtAGZLamaPp14r-333" value="" style="shape=flexArrow;endArrow=classic;html=1;rounded=0;width=1.8749999999999998;endSize=1.4386363636363635;endWidth=4.187983069562017;fillColor=#000000;strokeColor=#000000;strokeWidth=0.4;" parent="1" edge="1">
          <mxGeometry width="50" height="50" relative="1" as="geometry">
            <mxPoint x="-1212.83" y="1385" as="sourcePoint" />
            <mxPoint x="-1212.83" y="1368.18" as="targetPoint" />
          </mxGeometry>
        </mxCell>
        <mxCell id="lNjEDPmtAGZLamaPp14r-334" value="" style="shape=flexArrow;endArrow=classic;html=1;rounded=0;width=1.8749999999999998;endSize=1.4386363636363635;endWidth=4.187983069562017;fillColor=#000000;strokeColor=#000000;strokeWidth=0.4;" parent="1" edge="1">
          <mxGeometry width="50" height="50" relative="1" as="geometry">
            <mxPoint x="-1168.9099999999999" y="1386" as="sourcePoint" />
            <mxPoint x="-1168.9099999999999" y="1369.18" as="targetPoint" />
          </mxGeometry>
        </mxCell>
        <mxCell id="lNjEDPmtAGZLamaPp14r-335" value="" style="shape=flexArrow;endArrow=classic;html=1;rounded=0;width=1.8749999999999998;endSize=1.4386363636363635;endWidth=4.187983069562017;fillColor=#000000;strokeColor=#000000;strokeWidth=0.4;" parent="1" edge="1">
          <mxGeometry width="50" height="50" relative="1" as="geometry">
            <mxPoint x="-1125.9099999999999" y="1386" as="sourcePoint" />
            <mxPoint x="-1125.9099999999999" y="1369.18" as="targetPoint" />
          </mxGeometry>
        </mxCell>
        <mxCell id="lNjEDPmtAGZLamaPp14r-336" value="" style="shape=flexArrow;endArrow=classic;html=1;rounded=0;width=1.8749999999999998;endSize=1.4386363636363635;endWidth=4.187983069562017;fillColor=#000000;strokeColor=#000000;strokeWidth=0.4;" parent="1" edge="1">
          <mxGeometry width="50" height="50" relative="1" as="geometry">
            <mxPoint x="-1081.9099999999999" y="1386" as="sourcePoint" />
            <mxPoint x="-1081.9099999999999" y="1369.18" as="targetPoint" />
          </mxGeometry>
        </mxCell>
        <mxCell id="lNjEDPmtAGZLamaPp14r-337" value="" style="shape=flexArrow;endArrow=classic;html=1;rounded=0;width=1.8749999999999998;endSize=1.4386363636363635;endWidth=4.187983069562017;fillColor=#000000;strokeColor=#000000;strokeWidth=0.4;" parent="1" edge="1">
          <mxGeometry width="50" height="50" relative="1" as="geometry">
            <mxPoint x="-1039.3799999999999" y="1386" as="sourcePoint" />
            <mxPoint x="-1039.3799999999999" y="1369.18" as="targetPoint" />
          </mxGeometry>
        </mxCell>
        <mxCell id="lNjEDPmtAGZLamaPp14r-338" value="" style="shape=flexArrow;endArrow=classic;html=1;rounded=0;width=1.8749999999999998;endSize=1.4386363636363635;endWidth=4.187983069562017;fillColor=#000000;strokeColor=#000000;strokeWidth=0.4;" parent="1" edge="1">
          <mxGeometry width="50" height="50" relative="1" as="geometry">
            <mxPoint x="-995.4599999999998" y="1386" as="sourcePoint" />
            <mxPoint x="-995.4599999999998" y="1369.18" as="targetPoint" />
          </mxGeometry>
        </mxCell>
        <mxCell id="lNjEDPmtAGZLamaPp14r-339" value="" style="shape=flexArrow;endArrow=classic;html=1;rounded=0;width=1.8749999999999998;endSize=1.4386363636363635;endWidth=4.187983069562017;fillColor=#000000;strokeColor=#000000;strokeWidth=0.4;" parent="1" edge="1">
          <mxGeometry width="50" height="50" relative="1" as="geometry">
            <mxPoint x="-952.4599999999998" y="1386" as="sourcePoint" />
            <mxPoint x="-952.4599999999998" y="1369.18" as="targetPoint" />
          </mxGeometry>
        </mxCell>
        <mxCell id="lNjEDPmtAGZLamaPp14r-340" value="" style="shape=flexArrow;endArrow=classic;html=1;rounded=0;width=1.8749999999999998;endSize=1.4386363636363635;endWidth=4.187983069562017;fillColor=#000000;strokeColor=#000000;strokeWidth=0.4;" parent="1" edge="1">
          <mxGeometry width="50" height="50" relative="1" as="geometry">
            <mxPoint x="-908.4599999999998" y="1386" as="sourcePoint" />
            <mxPoint x="-908.4599999999998" y="1369.18" as="targetPoint" />
          </mxGeometry>
        </mxCell>
        <mxCell id="lNjEDPmtAGZLamaPp14r-347" value="" style="shape=flexArrow;endArrow=classic;html=1;rounded=0;width=1.8749999999999998;endSize=1.4386363636363635;endWidth=4.187983069562017;fillColor=#000000;strokeColor=#000000;strokeWidth=0.4;" parent="1" edge="1">
          <mxGeometry width="50" height="50" relative="1" as="geometry">
            <mxPoint x="-748.9999999999998" y="1386.82" as="sourcePoint" />
            <mxPoint x="-748.9999999999998" y="1370" as="targetPoint" />
          </mxGeometry>
        </mxCell>
        <mxCell id="lNjEDPmtAGZLamaPp14r-348" value="" style="shape=flexArrow;endArrow=classic;html=1;rounded=0;width=1.8749999999999998;endSize=1.4386363636363635;endWidth=4.187983069562017;fillColor=#000000;strokeColor=#000000;strokeWidth=0.4;" parent="1" edge="1">
          <mxGeometry width="50" height="50" relative="1" as="geometry">
            <mxPoint x="-689.4199999999998" y="1386.82" as="sourcePoint" />
            <mxPoint x="-689.4199999999998" y="1370" as="targetPoint" />
          </mxGeometry>
        </mxCell>
        <mxCell id="lNjEDPmtAGZLamaPp14r-349" value="" style="shape=flexArrow;endArrow=classic;html=1;rounded=0;width=1.8749999999999998;endSize=1.4386363636363635;endWidth=4.187983069562017;fillColor=#000000;strokeColor=#000000;strokeWidth=0.4;" parent="1" edge="1">
          <mxGeometry width="50" height="50" relative="1" as="geometry">
            <mxPoint x="-635.0899999999998" y="1386.82" as="sourcePoint" />
            <mxPoint x="-635.0899999999998" y="1370" as="targetPoint" />
          </mxGeometry>
        </mxCell>
        <mxCell id="lNjEDPmtAGZLamaPp14r-350" value="" style="shape=flexArrow;endArrow=classic;html=1;rounded=0;width=1.8749999999999998;endSize=1.4386363636363635;endWidth=4.187983069562017;fillColor=#000000;strokeColor=#000000;strokeWidth=0.4;" parent="1" edge="1">
          <mxGeometry width="50" height="50" relative="1" as="geometry">
            <mxPoint x="-575.0899999999997" y="1386.82" as="sourcePoint" />
            <mxPoint x="-575.0899999999997" y="1370" as="targetPoint" />
          </mxGeometry>
        </mxCell>
        <mxCell id="lNjEDPmtAGZLamaPp14r-351" value="" style="shape=flexArrow;endArrow=classic;html=1;rounded=0;width=1.8749999999999998;endSize=1.4386363636363635;endWidth=4.187983069562017;fillColor=#000000;strokeColor=#000000;strokeWidth=0.4;" parent="1" edge="1">
          <mxGeometry width="50" height="50" relative="1" as="geometry">
            <mxPoint x="-512.0999999999997" y="1386.82" as="sourcePoint" />
            <mxPoint x="-512.0999999999997" y="1370" as="targetPoint" />
          </mxGeometry>
        </mxCell>
        <mxCell id="lNjEDPmtAGZLamaPp14r-352" value="" style="shape=flexArrow;endArrow=classic;html=1;rounded=0;width=1.8749999999999998;endSize=1.4386363636363635;endWidth=4.187983069562017;fillColor=#000000;strokeColor=#000000;strokeWidth=0.4;" parent="1" edge="1">
          <mxGeometry width="50" height="50" relative="1" as="geometry">
            <mxPoint x="-811.2099999999998" y="1386.82" as="sourcePoint" />
            <mxPoint x="-811.2099999999998" y="1370" as="targetPoint" />
          </mxGeometry>
        </mxCell>
        <mxCell id="lNjEDPmtAGZLamaPp14r-353" value="&lt;font style=&quot;font-size: 12px;&quot;&gt;[s]&lt;/font&gt;" style="rounded=1;whiteSpace=wrap;html=1;fontFamily=Times New Roman;fontSize=2;strokeColor=#000000;rotation=0;container=0;align=center;verticalAlign=middle;horizontal=1;spacingTop=-2;fillColor=#FECCCB;strokeWidth=0.2;" parent="1" vertex="1">
          <mxGeometry x="-833.87" y="1391.82" width="44" height="20" as="geometry" />
        </mxCell>
        <mxCell id="lNjEDPmtAGZLamaPp14r-354" value="&lt;font style=&quot;font-size: 12px;&quot;&gt;disease&lt;/font&gt;" style="rounded=1;whiteSpace=wrap;html=1;fontFamily=Times New Roman;fontSize=2;strokeColor=#000000;rotation=0;container=0;align=center;verticalAlign=middle;horizontal=1;spacingTop=-2;fillColor=#FECCCB;strokeWidth=0.2;" parent="1" vertex="1">
          <mxGeometry x="-775" y="1392" width="44" height="20" as="geometry" />
        </mxCell>
        <mxCell id="lNjEDPmtAGZLamaPp14r-355" value="&lt;font style=&quot;font-size: 12px;&quot;&gt;is&lt;/font&gt;" style="rounded=1;whiteSpace=wrap;html=1;fontFamily=Times New Roman;fontSize=2;strokeColor=#000000;rotation=0;container=0;align=center;verticalAlign=middle;horizontal=1;spacingTop=-2;fillColor=#FECCCB;strokeWidth=0.2;" parent="1" vertex="1">
          <mxGeometry x="-715.25" y="1391.82" width="44" height="20" as="geometry" />
        </mxCell>
        <mxCell id="lNjEDPmtAGZLamaPp14r-356" value="&lt;font style=&quot;font-size: 12px;&quot;&gt;common&lt;/font&gt;" style="rounded=1;whiteSpace=wrap;html=1;fontFamily=Times New Roman;fontSize=2;strokeColor=#000000;rotation=0;container=0;align=center;verticalAlign=middle;horizontal=1;spacingTop=-2;fillColor=#FECCCB;strokeWidth=0.2;" parent="1" vertex="1">
          <mxGeometry x="-596.99" y="1391.82" width="44" height="20" as="geometry" />
        </mxCell>
        <mxCell id="lNjEDPmtAGZLamaPp14r-357" value="&lt;font style=&quot;font-size: 12px;&quot;&gt;enemy&lt;/font&gt;" style="rounded=1;whiteSpace=wrap;html=1;fontFamily=Times New Roman;fontSize=2;strokeColor=#000000;rotation=0;container=0;align=center;verticalAlign=middle;horizontal=1;spacingTop=-2;fillColor=#FECCCB;strokeWidth=0.2;" parent="1" vertex="1">
          <mxGeometry x="-534" y="1390.82" width="44" height="20" as="geometry" />
        </mxCell>
        <mxCell id="lNjEDPmtAGZLamaPp14r-362" value="" style="shape=cross;whiteSpace=wrap;html=1;size=0.17183098591549423;fillColor=#000000;strokeColor=#000000;strokeWidth=0.4;" parent="1" vertex="1">
          <mxGeometry x="-816.5000000000001" y="1457" width="10" height="10" as="geometry" />
        </mxCell>
        <mxCell id="lNjEDPmtAGZLamaPp14r-363" value="" style="shape=cross;whiteSpace=wrap;html=1;size=0.17183098591549423;fillColor=#000000;strokeColor=#000000;strokeWidth=0.4;" parent="1" vertex="1">
          <mxGeometry x="-758.5000000000001" y="1457" width="10" height="10" as="geometry" />
        </mxCell>
        <mxCell id="lNjEDPmtAGZLamaPp14r-364" value="" style="shape=cross;whiteSpace=wrap;html=1;size=0.17183098591549423;fillColor=#000000;strokeColor=#000000;strokeWidth=0.4;" parent="1" vertex="1">
          <mxGeometry x="-698.7500000000001" y="1457" width="10" height="10" as="geometry" />
        </mxCell>
        <mxCell id="lNjEDPmtAGZLamaPp14r-365" value="" style="shape=cross;whiteSpace=wrap;html=1;size=0.17183098591549423;fillColor=#000000;strokeColor=#000000;strokeWidth=0.4;" parent="1" vertex="1">
          <mxGeometry x="-640.4900000000001" y="1457" width="10" height="10" as="geometry" />
        </mxCell>
        <mxCell id="lNjEDPmtAGZLamaPp14r-366" value="" style="shape=cross;whiteSpace=wrap;html=1;size=0.17183098591549423;fillColor=#000000;strokeColor=#000000;strokeWidth=0.4;" parent="1" vertex="1">
          <mxGeometry x="-580.4900000000001" y="1457" width="10" height="10" as="geometry" />
        </mxCell>
        <mxCell id="lNjEDPmtAGZLamaPp14r-367" value="" style="shape=cross;whiteSpace=wrap;html=1;size=0.17183098591549423;fillColor=#000000;strokeColor=#000000;strokeWidth=0.4;" parent="1" vertex="1">
          <mxGeometry x="-517.5000000000001" y="1457" width="10" height="10" as="geometry" />
        </mxCell>
        <mxCell id="lNjEDPmtAGZLamaPp14r-368" value="" style="shape=flexArrow;endArrow=classic;html=1;rounded=0;width=1.8749999999999998;endSize=1.4386363636363635;endWidth=4.187983069562017;fillColor=#000000;strokeColor=#000000;strokeWidth=0.4;" parent="1" edge="1">
          <mxGeometry width="50" height="50" relative="1" as="geometry">
            <mxPoint x="-752.4499999999998" y="1323" as="sourcePoint" />
            <mxPoint x="-752.4499999999998" y="1306.18" as="targetPoint" />
          </mxGeometry>
        </mxCell>
        <mxCell id="lNjEDPmtAGZLamaPp14r-369" value="" style="shape=flexArrow;endArrow=classic;html=1;rounded=0;width=1.8749999999999998;endSize=1.4386363636363635;endWidth=4.187983069562017;fillColor=#000000;strokeColor=#000000;strokeWidth=0.4;" parent="1" edge="1">
          <mxGeometry width="50" height="50" relative="1" as="geometry">
            <mxPoint x="-693.8699999999999" y="1323" as="sourcePoint" />
            <mxPoint x="-693.8699999999999" y="1306.18" as="targetPoint" />
          </mxGeometry>
        </mxCell>
        <mxCell id="lNjEDPmtAGZLamaPp14r-370" value="" style="shape=flexArrow;endArrow=classic;html=1;rounded=0;width=1.8749999999999998;endSize=1.4386363636363635;endWidth=4.187983069562017;fillColor=#000000;strokeColor=#000000;strokeWidth=0.4;" parent="1" edge="1">
          <mxGeometry width="50" height="50" relative="1" as="geometry">
            <mxPoint x="-634.5399999999998" y="1323" as="sourcePoint" />
            <mxPoint x="-634.5399999999998" y="1306.18" as="targetPoint" />
          </mxGeometry>
        </mxCell>
        <mxCell id="lNjEDPmtAGZLamaPp14r-371" value="" style="shape=flexArrow;endArrow=classic;html=1;rounded=0;width=1.8749999999999998;endSize=1.4386363636363635;endWidth=4.187983069562017;fillColor=#000000;strokeColor=#000000;strokeWidth=0.4;" parent="1" edge="1">
          <mxGeometry width="50" height="50" relative="1" as="geometry">
            <mxPoint x="-571.5399999999997" y="1323" as="sourcePoint" />
            <mxPoint x="-571.5399999999997" y="1306.18" as="targetPoint" />
          </mxGeometry>
        </mxCell>
        <mxCell id="lNjEDPmtAGZLamaPp14r-372" value="" style="shape=flexArrow;endArrow=classic;html=1;rounded=0;width=1.8749999999999998;endSize=1.4386363636363635;endWidth=4.187983069562017;fillColor=#000000;strokeColor=#000000;strokeWidth=0.4;" parent="1" edge="1">
          <mxGeometry width="50" height="50" relative="1" as="geometry">
            <mxPoint x="-511.5499999999997" y="1323" as="sourcePoint" />
            <mxPoint x="-511.5499999999997" y="1306.18" as="targetPoint" />
          </mxGeometry>
        </mxCell>
        <mxCell id="lNjEDPmtAGZLamaPp14r-373" value="" style="shape=flexArrow;endArrow=classic;html=1;rounded=0;width=1.8749999999999998;endSize=1.4386363636363635;endWidth=4.187983069562017;fillColor=#000000;strokeColor=#000000;strokeWidth=0.4;" parent="1" edge="1">
          <mxGeometry width="50" height="50" relative="1" as="geometry">
            <mxPoint x="-811.6599999999999" y="1323" as="sourcePoint" />
            <mxPoint x="-811.6599999999999" y="1306.18" as="targetPoint" />
          </mxGeometry>
        </mxCell>
        <mxCell id="lNjEDPmtAGZLamaPp14r-374" value="&lt;font style=&quot;font-size: 12px;&quot;&gt;the&lt;/font&gt;" style="rounded=1;whiteSpace=wrap;html=1;fontFamily=Times New Roman;fontSize=2;strokeColor=#000000;rotation=0;container=0;align=center;verticalAlign=middle;horizontal=1;spacingTop=-2;strokeWidth=0.2;fillColor=#FECCCB;" parent="1" vertex="1">
          <mxGeometry x="-716.12" y="1282" width="44" height="20" as="geometry" />
        </mxCell>
        <mxCell id="lNjEDPmtAGZLamaPp14r-375" value="&lt;font style=&quot;font-size: 12px;&quot;&gt;[/s]&lt;/font&gt;" style="rounded=1;whiteSpace=wrap;html=1;fontFamily=Times New Roman;fontSize=2;strokeColor=#000000;rotation=0;container=0;align=center;verticalAlign=middle;horizontal=1;spacingTop=-2;strokeWidth=0.2;fillColor=#FECCCB;" parent="1" vertex="1">
          <mxGeometry x="-534.5" y="1281" width="44" height="20" as="geometry" />
        </mxCell>
        <mxCell id="lNjEDPmtAGZLamaPp14r-376" value="&lt;font style=&quot;font-size: 12px;&quot;&gt;disease&lt;/font&gt;" style="rounded=1;whiteSpace=wrap;html=1;fontFamily=Times New Roman;fontSize=2;strokeColor=#000000;rotation=0;container=0;align=center;verticalAlign=middle;horizontal=1;spacingTop=-2;strokeWidth=0.2;fillColor=#FECCCB;" parent="1" vertex="1">
          <mxGeometry x="-834" y="1282.18" width="44" height="20" as="geometry" />
        </mxCell>
        <mxCell id="lNjEDPmtAGZLamaPp14r-377" value="&lt;font style=&quot;font-size: 12px;&quot;&gt;is&lt;/font&gt;" style="rounded=1;whiteSpace=wrap;html=1;fontFamily=Times New Roman;fontSize=2;strokeColor=#000000;rotation=0;container=0;align=center;verticalAlign=middle;horizontal=1;spacingTop=-2;strokeWidth=0.2;fillColor=#FECCCB;" parent="1" vertex="1">
          <mxGeometry x="-774.25" y="1282" width="44" height="20" as="geometry" />
        </mxCell>
        <mxCell id="lNjEDPmtAGZLamaPp14r-378" value="&lt;font style=&quot;font-size: 12px;&quot;&gt;common&lt;/font&gt;" style="rounded=1;whiteSpace=wrap;html=1;fontFamily=Times New Roman;fontSize=2;strokeColor=#000000;rotation=0;container=0;align=center;verticalAlign=middle;horizontal=1;spacingTop=-2;strokeWidth=0.2;fillColor=#FECCCB;" parent="1" vertex="1">
          <mxGeometry x="-655.99" y="1282" width="44" height="20" as="geometry" />
        </mxCell>
        <mxCell id="lNjEDPmtAGZLamaPp14r-379" value="&lt;font style=&quot;font-size: 12px;&quot;&gt;enemy&lt;/font&gt;" style="rounded=1;whiteSpace=wrap;html=1;fontFamily=Times New Roman;fontSize=2;strokeColor=#000000;rotation=0;container=0;align=center;verticalAlign=middle;horizontal=1;spacingTop=-2;strokeWidth=0.2;fillColor=#FECCCB;" parent="1" vertex="1">
          <mxGeometry x="-593" y="1281" width="44" height="20" as="geometry" />
        </mxCell>
        <mxCell id="lNjEDPmtAGZLamaPp14r-385" style="rounded=0;orthogonalLoop=1;jettySize=auto;html=1;entryX=1;entryY=0.5;entryDx=0;entryDy=0;fontFamily=Times New Roman;fontSize=10;fontColor=#000000;endArrow=ERzeroToMany;endFill=0;fillColor=#eeeeee;strokeColor=#36393d;exitX=0;exitY=0.5;exitDx=0;exitDy=0;" parent="1" source="lNjEDPmtAGZLamaPp14r-420" target="lNjEDPmtAGZLamaPp14r-419" edge="1">
          <mxGeometry relative="1" as="geometry">
            <mxPoint x="-907.75" y="1844.37" as="sourcePoint" />
          </mxGeometry>
        </mxCell>
        <mxCell id="lNjEDPmtAGZLamaPp14r-386" value="&lt;font style=&quot;font-size: 12px;&quot;&gt;Und&lt;/font&gt;" style="rounded=1;whiteSpace=wrap;html=1;fontFamily=Times New Roman;fontSize=2;strokeColor=#000000;rotation=0;container=0;fillColor=#FECCCB;strokeWidth=0.2;" parent="1" vertex="1">
          <mxGeometry x="-1307.75" y="1834.37" width="22" height="20" as="geometry" />
        </mxCell>
        <mxCell id="lNjEDPmtAGZLamaPp14r-387" value="&lt;font style=&quot;font-size: 12px;&quot;&gt;der&lt;/font&gt;" style="rounded=1;whiteSpace=wrap;html=1;fontFamily=Times New Roman;fontSize=2;strokeColor=#000000;rotation=0;container=0;fillColor=#FECCCB;strokeWidth=0.2;" parent="1" vertex="1">
          <mxGeometry x="-1263.75" y="1834.37" width="22" height="20" as="geometry" />
        </mxCell>
        <mxCell id="lNjEDPmtAGZLamaPp14r-388" value="&lt;font style=&quot;font-size: 12px;&quot;&gt;[/s]&lt;/font&gt;" style="rounded=1;whiteSpace=wrap;html=1;fontFamily=Times New Roman;fontSize=2;strokeColor=#000000;rotation=0;container=0;fillColor=#FECCCB;strokeWidth=0.2;" parent="1" vertex="1">
          <mxGeometry x="-1180.75" y="1834.37" width="22" height="20" as="geometry" />
        </mxCell>
        <mxCell id="lNjEDPmtAGZLamaPp14r-389" value="&lt;font style=&quot;font-size: 12px;&quot;&gt;And&lt;/font&gt;" style="rounded=1;whiteSpace=wrap;html=1;fontFamily=Times New Roman;fontSize=2;strokeColor=#000000;rotation=0;container=0;fillColor=#CCE2FF;strokeWidth=0.2;" parent="1" vertex="1">
          <mxGeometry x="-1137.75" y="1834.37" width="22" height="20" as="geometry" />
        </mxCell>
        <mxCell id="lNjEDPmtAGZLamaPp14r-390" value="&lt;font style=&quot;font-size: 12px;&quot;&gt;[c]&lt;br&gt;&lt;/font&gt;" style="rounded=1;whiteSpace=wrap;html=1;fontFamily=Times New Roman;fontSize=2;strokeColor=#000000;rotation=0;container=0;fillColor=#CCE2FF;strokeWidth=0.2;" parent="1" vertex="1">
          <mxGeometry x="-1093.75" y="1834.37" width="22" height="20" as="geometry" />
        </mxCell>
        <mxCell id="lNjEDPmtAGZLamaPp14r-391" value="&lt;font style=&quot;font-size: 12px;&quot;&gt;[/c]&lt;/font&gt;" style="rounded=1;whiteSpace=wrap;html=1;fontFamily=Times New Roman;fontSize=2;strokeColor=#000000;rotation=0;container=0;fillColor=#CCE2FF;strokeWidth=0.2;" parent="1" vertex="1">
          <mxGeometry x="-962.75" y="1834.37" width="22" height="20" as="geometry" />
        </mxCell>
        <mxCell id="lNjEDPmtAGZLamaPp14r-392" value="&lt;font style=&quot;font-size: 12px;&quot;&gt;d&lt;/font&gt;" style="rounded=1;whiteSpace=wrap;html=1;fontFamily=Times New Roman;fontSize=2;strokeColor=#000000;rotation=0;container=0;fillColor=#CCE2FF;strokeWidth=0.2;" parent="1" vertex="1">
          <mxGeometry x="-1050.75" y="1834.37" width="22" height="20" as="geometry" />
        </mxCell>
        <mxCell id="lNjEDPmtAGZLamaPp14r-393" value="&lt;font style=&quot;font-size: 12px;&quot;&gt;i&lt;br&gt;&lt;/font&gt;" style="rounded=1;whiteSpace=wrap;html=1;fontFamily=Times New Roman;fontSize=2;strokeColor=#000000;rotation=0;container=0;fillColor=#CCE2FF;strokeWidth=0.2;" parent="1" vertex="1">
          <mxGeometry x="-1006.75" y="1834.37" width="22" height="20" as="geometry" />
        </mxCell>
        <mxCell id="lNjEDPmtAGZLamaPp14r-394" value="&lt;font style=&quot;font-size: 12px;&quot;&gt;of&lt;br&gt;&lt;/font&gt;" style="rounded=1;whiteSpace=wrap;html=1;fontFamily=Times New Roman;fontSize=2;strokeColor=#000000;rotation=0;container=0;fillColor=#CCE2FF;strokeWidth=0.2;" parent="1" vertex="1">
          <mxGeometry x="-919.75" y="1834.37" width="22" height="20" as="geometry" />
        </mxCell>
        <mxCell id="lNjEDPmtAGZLamaPp14r-395" value="&lt;font style=&quot;font-size: 12px;&quot;&gt;...&lt;/font&gt;" style="rounded=1;whiteSpace=wrap;html=1;fontFamily=Times New Roman;fontSize=2;strokeColor=#000000;rotation=0;container=0;fillColor=#FECCCB;strokeWidth=0.2;" parent="1" vertex="1">
          <mxGeometry x="-1224.75" y="1834.37" width="22" height="20" as="geometry" />
        </mxCell>
        <mxCell id="lNjEDPmtAGZLamaPp14r-396" value="&lt;font style=&quot;font-size: 12px;&quot;&gt;...&lt;br&gt;&lt;/font&gt;" style="rounded=1;whiteSpace=wrap;html=1;fontFamily=Times New Roman;fontSize=2;strokeColor=#000000;rotation=0;container=0;fillColor=#CCE2FF;strokeWidth=0.2;" parent="1" vertex="1">
          <mxGeometry x="-875.75" y="1834.37" width="22" height="20" as="geometry" />
        </mxCell>
        <mxCell id="lNjEDPmtAGZLamaPp14r-397" value="&lt;span style=&quot;font-size: 12px;&quot;&gt;0&lt;/span&gt;" style="rounded=1;whiteSpace=wrap;html=1;fontFamily=Times New Roman;fontSize=2;strokeColor=#000000;rotation=0;container=0;fillColor=#FECCCB;strokeWidth=0.2;" parent="1" vertex="1">
          <mxGeometry x="-1307.75" y="1875.37" width="22" height="20" as="geometry" />
        </mxCell>
        <mxCell id="lNjEDPmtAGZLamaPp14r-398" value="&lt;font style=&quot;font-size: 12px;&quot;&gt;1&lt;/font&gt;" style="rounded=1;whiteSpace=wrap;html=1;fontFamily=Times New Roman;fontSize=2;strokeColor=#000000;rotation=0;container=0;fillColor=#FECCCB;strokeWidth=0.2;" parent="1" vertex="1">
          <mxGeometry x="-1263.75" y="1875.37" width="22" height="20" as="geometry" />
        </mxCell>
        <mxCell id="lNjEDPmtAGZLamaPp14r-399" value="&lt;font style=&quot;font-size: 12px;&quot;&gt;8&lt;/font&gt;" style="rounded=1;whiteSpace=wrap;html=1;fontFamily=Times New Roman;fontSize=2;strokeColor=#000000;rotation=0;container=0;fillColor=#FECCCB;strokeWidth=0.2;" parent="1" vertex="1">
          <mxGeometry x="-1180.75" y="1876.37" width="22" height="20" as="geometry" />
        </mxCell>
        <mxCell id="lNjEDPmtAGZLamaPp14r-400" value="&lt;font style=&quot;font-size: 12px;&quot;&gt;0&lt;/font&gt;" style="rounded=1;whiteSpace=wrap;html=1;fontFamily=Times New Roman;fontSize=2;strokeColor=#000000;rotation=0;container=0;fillColor=#CCE2FF;strokeWidth=0.2;" parent="1" vertex="1">
          <mxGeometry x="-1137.75" y="1876.37" width="22" height="20" as="geometry" />
        </mxCell>
        <mxCell id="lNjEDPmtAGZLamaPp14r-401" value="&lt;font style=&quot;font-size: 12px;&quot;&gt;1&lt;/font&gt;" style="rounded=1;whiteSpace=wrap;html=1;fontFamily=Times New Roman;fontSize=2;strokeColor=#000000;rotation=0;container=0;fillColor=#CCE2FF;strokeWidth=0.2;" parent="1" vertex="1">
          <mxGeometry x="-1093.75" y="1876.37" width="22" height="20" as="geometry" />
        </mxCell>
        <mxCell id="lNjEDPmtAGZLamaPp14r-402" value="&lt;font style=&quot;font-size: 12px;&quot;&gt;4&lt;/font&gt;" style="rounded=1;whiteSpace=wrap;html=1;fontFamily=Times New Roman;fontSize=2;strokeColor=#000000;rotation=0;container=0;fillColor=#CCE2FF;strokeWidth=0.2;" parent="1" vertex="1">
          <mxGeometry x="-962.75" y="1876.37" width="22" height="20" as="geometry" />
        </mxCell>
        <mxCell id="lNjEDPmtAGZLamaPp14r-403" value="&lt;font style=&quot;font-size: 12px;&quot;&gt;2&lt;/font&gt;" style="rounded=1;whiteSpace=wrap;html=1;fontFamily=Times New Roman;fontSize=2;strokeColor=#000000;rotation=0;container=0;fillColor=#CCE2FF;strokeWidth=0.2;" parent="1" vertex="1">
          <mxGeometry x="-1050.75" y="1876.37" width="22" height="20" as="geometry" />
        </mxCell>
        <mxCell id="lNjEDPmtAGZLamaPp14r-404" value="&lt;font style=&quot;font-size: 12px;&quot;&gt;3&lt;br&gt;&lt;/font&gt;" style="rounded=1;whiteSpace=wrap;html=1;fontFamily=Times New Roman;fontSize=2;strokeColor=#000000;rotation=0;container=0;fillColor=#CCE2FF;strokeWidth=0.2;" parent="1" vertex="1">
          <mxGeometry x="-1006.75" y="1876.37" width="22" height="20" as="geometry" />
        </mxCell>
        <mxCell id="lNjEDPmtAGZLamaPp14r-405" value="&lt;font style=&quot;font-size: 12px;&quot;&gt;5&lt;br&gt;&lt;/font&gt;" style="rounded=1;whiteSpace=wrap;html=1;fontFamily=Times New Roman;fontSize=2;strokeColor=#000000;rotation=0;container=0;fillColor=#CCE2FF;strokeWidth=0.2;" parent="1" vertex="1">
          <mxGeometry x="-919.75" y="1876.37" width="22" height="20" as="geometry" />
        </mxCell>
        <mxCell id="lNjEDPmtAGZLamaPp14r-406" value="&lt;font style=&quot;font-size: 12px;&quot;&gt;...&lt;/font&gt;" style="rounded=1;whiteSpace=wrap;html=1;fontFamily=Times New Roman;fontSize=2;strokeColor=#000000;rotation=0;container=0;fillColor=#FECCCB;strokeWidth=0.2;" parent="1" vertex="1">
          <mxGeometry x="-1224.75" y="1876.37" width="22" height="20" as="geometry" />
        </mxCell>
        <mxCell id="lNjEDPmtAGZLamaPp14r-407" value="&lt;font style=&quot;font-size: 12px;&quot;&gt;...&lt;br&gt;&lt;/font&gt;" style="rounded=1;whiteSpace=wrap;html=1;fontFamily=Times New Roman;fontSize=2;strokeColor=#000000;rotation=0;container=0;fillColor=#CCE2FF;strokeWidth=0.2;" parent="1" vertex="1">
          <mxGeometry x="-875.75" y="1876.37" width="22" height="20" as="geometry" />
        </mxCell>
        <mxCell id="lNjEDPmtAGZLamaPp14r-408" value="&lt;span style=&quot;font-size: 12px;&quot;&gt;de&lt;/span&gt;" style="rounded=1;whiteSpace=wrap;html=1;fontFamily=Times New Roman;fontSize=2;strokeColor=#000000;rotation=0;container=0;strokeWidth=0.2;fillColor=#FECCCB;shadow=0;glass=0;" parent="1" vertex="1">
          <mxGeometry x="-1307.75" y="1917.37" width="22" height="20" as="geometry" />
        </mxCell>
        <mxCell id="lNjEDPmtAGZLamaPp14r-409" value="&lt;font style=&quot;font-size: 12px;&quot;&gt;de&lt;/font&gt;" style="rounded=1;whiteSpace=wrap;html=1;fontFamily=Times New Roman;fontSize=2;strokeColor=#000000;rotation=0;container=0;strokeWidth=0.2;fillColor=#FECCCB;shadow=0;glass=0;" parent="1" vertex="1">
          <mxGeometry x="-1263.75" y="1917.37" width="22" height="20" as="geometry" />
        </mxCell>
        <mxCell id="lNjEDPmtAGZLamaPp14r-410" value="&lt;font style=&quot;font-size: 12px;&quot;&gt;de&lt;/font&gt;" style="rounded=1;whiteSpace=wrap;html=1;fontFamily=Times New Roman;fontSize=2;strokeColor=#000000;rotation=0;container=0;strokeWidth=0.2;fillColor=#FECCCB;shadow=0;glass=0;" parent="1" vertex="1">
          <mxGeometry x="-1180.75" y="1917.37" width="22" height="20" as="geometry" />
        </mxCell>
        <mxCell id="lNjEDPmtAGZLamaPp14r-411" value="&lt;font style=&quot;font-size: 12px;&quot;&gt;en&lt;/font&gt;" style="rounded=1;whiteSpace=wrap;html=1;fontFamily=Times New Roman;fontSize=2;strokeColor=#000000;rotation=0;container=0;strokeWidth=0.2;fillColor=#CCE2FF;shadow=0;glass=0;" parent="1" vertex="1">
          <mxGeometry x="-1137.75" y="1917.37" width="22" height="20" as="geometry" />
        </mxCell>
        <mxCell id="lNjEDPmtAGZLamaPp14r-412" value="&lt;font style=&quot;font-size: 12px;&quot;&gt;en&lt;/font&gt;" style="rounded=1;whiteSpace=wrap;html=1;fontFamily=Times New Roman;fontSize=2;strokeColor=#000000;rotation=0;container=0;strokeWidth=0.2;fillColor=#CCE2FF;shadow=0;glass=0;" parent="1" vertex="1">
          <mxGeometry x="-1093.75" y="1917.37" width="22" height="20" as="geometry" />
        </mxCell>
        <mxCell id="lNjEDPmtAGZLamaPp14r-413" value="&lt;font style=&quot;font-size: 12px;&quot;&gt;en&lt;/font&gt;" style="rounded=1;whiteSpace=wrap;html=1;fontFamily=Times New Roman;fontSize=2;strokeColor=#000000;rotation=0;container=0;strokeWidth=0.2;fillColor=#CCE2FF;shadow=0;glass=0;" parent="1" vertex="1">
          <mxGeometry x="-962.75" y="1917.37" width="22" height="20" as="geometry" />
        </mxCell>
        <mxCell id="lNjEDPmtAGZLamaPp14r-414" value="&lt;font style=&quot;font-size: 12px;&quot;&gt;en&lt;/font&gt;" style="rounded=1;whiteSpace=wrap;html=1;fontFamily=Times New Roman;fontSize=2;strokeColor=#000000;rotation=0;container=0;strokeWidth=0.2;fillColor=#CCE2FF;shadow=0;glass=0;" parent="1" vertex="1">
          <mxGeometry x="-1050.75" y="1917.37" width="22" height="20" as="geometry" />
        </mxCell>
        <mxCell id="lNjEDPmtAGZLamaPp14r-415" value="&lt;font style=&quot;font-size: 12px;&quot;&gt;en&lt;br&gt;&lt;/font&gt;" style="rounded=1;whiteSpace=wrap;html=1;fontFamily=Times New Roman;fontSize=2;strokeColor=#000000;rotation=0;container=0;strokeWidth=0.2;fillColor=#CCE2FF;shadow=0;glass=0;" parent="1" vertex="1">
          <mxGeometry x="-1006.75" y="1917.37" width="22" height="20" as="geometry" />
        </mxCell>
        <mxCell id="lNjEDPmtAGZLamaPp14r-416" value="&lt;font style=&quot;font-size: 12px;&quot;&gt;en&lt;br&gt;&lt;/font&gt;" style="rounded=1;whiteSpace=wrap;html=1;fontFamily=Times New Roman;fontSize=2;strokeColor=#000000;rotation=0;container=0;strokeWidth=0.2;fillColor=#CCE2FF;shadow=0;glass=0;" parent="1" vertex="1">
          <mxGeometry x="-919.75" y="1918.37" width="22" height="20" as="geometry" />
        </mxCell>
        <mxCell id="lNjEDPmtAGZLamaPp14r-417" value="&lt;span style=&quot;font-size: 12px;&quot;&gt;...&lt;/span&gt;" style="rounded=1;whiteSpace=wrap;html=1;fontFamily=Times New Roman;fontSize=2;strokeColor=#000000;rotation=0;container=0;strokeWidth=0.2;fillColor=#FECCCB;shadow=0;glass=0;" parent="1" vertex="1">
          <mxGeometry x="-1224.75" y="1918.37" width="22" height="20" as="geometry" />
        </mxCell>
        <mxCell id="lNjEDPmtAGZLamaPp14r-418" value="&lt;font style=&quot;font-size: 12px;&quot;&gt;...&lt;br&gt;&lt;/font&gt;" style="rounded=1;whiteSpace=wrap;html=1;fontFamily=Times New Roman;fontSize=2;strokeColor=#000000;rotation=0;container=0;strokeWidth=0.2;fillColor=#CCE2FF;shadow=0;glass=0;" parent="1" vertex="1">
          <mxGeometry x="-875.75" y="1918.37" width="22" height="20" as="geometry" />
        </mxCell>
        <mxCell id="lNjEDPmtAGZLamaPp14r-419" value="&lt;b&gt;Input Encoder&lt;/b&gt;" style="rounded=1;whiteSpace=wrap;html=1;fontSize=15;fillColor=#eeeeee;strokeColor=#36393d;strokeWidth=0.5;fillStyle=auto;fontFamily=Times New Roman;opacity=70;" parent="1" vertex="1">
          <mxGeometry x="-1314" y="1774.37" width="466.25" height="36.75" as="geometry" />
        </mxCell>
        <mxCell id="lNjEDPmtAGZLamaPp14r-420" value="&lt;b&gt;Target Decoder&lt;/b&gt;" style="rounded=1;whiteSpace=wrap;html=1;fontSize=15;fillColor=#eeeeee;strokeColor=#36393d;strokeWidth=0.5;fillStyle=auto;fontFamily=Times New Roman;opacity=80;" parent="1" vertex="1">
          <mxGeometry x="-794.75" y="1774.37" width="350" height="37.75" as="geometry" />
        </mxCell>
        <mxCell id="lNjEDPmtAGZLamaPp14r-421" value="Token&lt;br&gt;Embeddings" style="text;html=1;align=center;verticalAlign=middle;resizable=0;points=[];autosize=1;strokeColor=none;fillColor=none;" parent="1" vertex="1">
          <mxGeometry x="-1397.75" y="1822.19" width="90" height="40" as="geometry" />
        </mxCell>
        <mxCell id="lNjEDPmtAGZLamaPp14r-422" value="Position&lt;br&gt;Embeddings" style="text;html=1;align=center;verticalAlign=middle;resizable=0;points=[];autosize=1;strokeColor=none;fillColor=none;" parent="1" vertex="1">
          <mxGeometry x="-1399.75" y="1864.37" width="90" height="40" as="geometry" />
        </mxCell>
        <mxCell id="lNjEDPmtAGZLamaPp14r-423" value="Language&lt;br&gt;Embeddings" style="text;html=1;align=center;verticalAlign=middle;resizable=0;points=[];autosize=1;strokeColor=none;fillColor=none;" parent="1" vertex="1">
          <mxGeometry x="-1400" y="1905.37" width="90" height="40" as="geometry" />
        </mxCell>
        <mxCell id="lNjEDPmtAGZLamaPp14r-424" value="" style="shape=cross;whiteSpace=wrap;html=1;size=0.17183098591549423;fillColor=#000000;strokeColor=#000000;" parent="1" vertex="1">
          <mxGeometry x="-1303.88" y="1861.37" width="10" height="10" as="geometry" />
        </mxCell>
        <mxCell id="lNjEDPmtAGZLamaPp14r-425" value="" style="shape=cross;whiteSpace=wrap;html=1;size=0.17183098591549423;fillColor=#000000;strokeColor=#000000;" parent="1" vertex="1">
          <mxGeometry x="-1303.88" y="1901.37" width="10" height="10" as="geometry" />
        </mxCell>
        <mxCell id="lNjEDPmtAGZLamaPp14r-426" value="" style="shape=cross;whiteSpace=wrap;html=1;size=0.17183098591549423;fillColor=#000000;strokeColor=#000000;" parent="1" vertex="1">
          <mxGeometry x="-1258.8700000000001" y="1861.37" width="10" height="10" as="geometry" />
        </mxCell>
        <mxCell id="lNjEDPmtAGZLamaPp14r-427" value="" style="shape=cross;whiteSpace=wrap;html=1;size=0.17183098591549423;fillColor=#000000;strokeColor=#000000;" parent="1" vertex="1">
          <mxGeometry x="-1260.75" y="1901.37" width="10" height="10" as="geometry" />
        </mxCell>
        <mxCell id="lNjEDPmtAGZLamaPp14r-428" value="" style="shape=cross;whiteSpace=wrap;html=1;size=0.17183098591549423;fillColor=#000000;strokeColor=#000000;" parent="1" vertex="1">
          <mxGeometry x="-1219.8700000000001" y="1861.37" width="10" height="10" as="geometry" />
        </mxCell>
        <mxCell id="lNjEDPmtAGZLamaPp14r-429" value="" style="shape=cross;whiteSpace=wrap;html=1;size=0.17183098591549423;fillColor=#000000;strokeColor=#000000;" parent="1" vertex="1">
          <mxGeometry x="-1217.75" y="1902.37" width="10" height="10" as="geometry" />
        </mxCell>
        <mxCell id="lNjEDPmtAGZLamaPp14r-430" value="" style="shape=cross;whiteSpace=wrap;html=1;size=0.17183098591549423;fillColor=#000000;strokeColor=#000000;" parent="1" vertex="1">
          <mxGeometry x="-1175.8700000000001" y="1861.37" width="10" height="10" as="geometry" />
        </mxCell>
        <mxCell id="lNjEDPmtAGZLamaPp14r-431" value="" style="shape=cross;whiteSpace=wrap;html=1;size=0.17183098591549423;fillColor=#000000;strokeColor=#000000;" parent="1" vertex="1">
          <mxGeometry x="-1173.75" y="1902.37" width="10" height="10" as="geometry" />
        </mxCell>
        <mxCell id="lNjEDPmtAGZLamaPp14r-432" value="" style="shape=cross;whiteSpace=wrap;html=1;size=0.17183098591549423;fillColor=#000000;strokeColor=#000000;" parent="1" vertex="1">
          <mxGeometry x="-1132.8700000000001" y="1861.37" width="10" height="10" as="geometry" />
        </mxCell>
        <mxCell id="lNjEDPmtAGZLamaPp14r-433" value="" style="shape=cross;whiteSpace=wrap;html=1;size=0.17183098591549423;fillColor=#000000;strokeColor=#000000;" parent="1" vertex="1">
          <mxGeometry x="-1130.75" y="1902.37" width="10" height="10" as="geometry" />
        </mxCell>
        <mxCell id="lNjEDPmtAGZLamaPp14r-434" value="" style="shape=cross;whiteSpace=wrap;html=1;size=0.17183098591549423;fillColor=#000000;strokeColor=#000000;" parent="1" vertex="1">
          <mxGeometry x="-1088.8700000000001" y="1861.37" width="10" height="10" as="geometry" />
        </mxCell>
        <mxCell id="lNjEDPmtAGZLamaPp14r-435" value="" style="shape=cross;whiteSpace=wrap;html=1;size=0.17183098591549423;fillColor=#000000;strokeColor=#000000;" parent="1" vertex="1">
          <mxGeometry x="-1087.75" y="1902.37" width="10" height="10" as="geometry" />
        </mxCell>
        <mxCell id="lNjEDPmtAGZLamaPp14r-436" value="" style="shape=cross;whiteSpace=wrap;html=1;size=0.17183098591549423;fillColor=#000000;strokeColor=#000000;" parent="1" vertex="1">
          <mxGeometry x="-1045.8700000000001" y="1861.37" width="10" height="10" as="geometry" />
        </mxCell>
        <mxCell id="lNjEDPmtAGZLamaPp14r-437" value="" style="shape=cross;whiteSpace=wrap;html=1;size=0.17183098591549423;fillColor=#000000;strokeColor=#000000;" parent="1" vertex="1">
          <mxGeometry x="-1043.75" y="1902.37" width="10" height="10" as="geometry" />
        </mxCell>
        <mxCell id="lNjEDPmtAGZLamaPp14r-438" value="" style="shape=cross;whiteSpace=wrap;html=1;size=0.17183098591549423;fillColor=#000000;strokeColor=#000000;" parent="1" vertex="1">
          <mxGeometry x="-1001.8700000000001" y="1861.37" width="10" height="10" as="geometry" />
        </mxCell>
        <mxCell id="lNjEDPmtAGZLamaPp14r-439" value="" style="shape=cross;whiteSpace=wrap;html=1;size=0.17183098591549423;fillColor=#000000;strokeColor=#000000;" parent="1" vertex="1">
          <mxGeometry x="-1000.75" y="1902.37" width="10" height="10" as="geometry" />
        </mxCell>
        <mxCell id="lNjEDPmtAGZLamaPp14r-440" value="" style="shape=cross;whiteSpace=wrap;html=1;size=0.17183098591549423;fillColor=#000000;strokeColor=#000000;" parent="1" vertex="1">
          <mxGeometry x="-957.8700000000001" y="1861.37" width="10" height="10" as="geometry" />
        </mxCell>
        <mxCell id="lNjEDPmtAGZLamaPp14r-441" value="" style="shape=cross;whiteSpace=wrap;html=1;size=0.17183098591549423;fillColor=#000000;strokeColor=#000000;" parent="1" vertex="1">
          <mxGeometry x="-957.75" y="1902.37" width="10" height="10" as="geometry" />
        </mxCell>
        <mxCell id="lNjEDPmtAGZLamaPp14r-442" value="" style="shape=cross;whiteSpace=wrap;html=1;size=0.17183098591549423;fillColor=#000000;strokeColor=#000000;" parent="1" vertex="1">
          <mxGeometry x="-914.8700000000001" y="1861.37" width="10" height="10" as="geometry" />
        </mxCell>
        <mxCell id="lNjEDPmtAGZLamaPp14r-443" value="" style="shape=cross;whiteSpace=wrap;html=1;size=0.17183098591549423;fillColor=#000000;strokeColor=#000000;" parent="1" vertex="1">
          <mxGeometry x="-913.75" y="1902.37" width="10" height="10" as="geometry" />
        </mxCell>
        <mxCell id="lNjEDPmtAGZLamaPp14r-444" value="" style="shape=cross;whiteSpace=wrap;html=1;size=0.17183098591549423;fillColor=#000000;strokeColor=#000000;" parent="1" vertex="1">
          <mxGeometry x="-870.8700000000001" y="1861.37" width="10" height="10" as="geometry" />
        </mxCell>
        <mxCell id="lNjEDPmtAGZLamaPp14r-445" value="" style="shape=cross;whiteSpace=wrap;html=1;size=0.17183098591549423;fillColor=#000000;strokeColor=#000000;" parent="1" vertex="1">
          <mxGeometry x="-870.8700000000001" y="1902.37" width="10" height="10" as="geometry" />
        </mxCell>
        <mxCell id="lNjEDPmtAGZLamaPp14r-446" value="&lt;font style=&quot;font-size: 12px;&quot;&gt;the&lt;/font&gt;" style="rounded=1;whiteSpace=wrap;html=1;fontFamily=Times New Roman;fontSize=2;strokeColor=#000000;rotation=0;container=0;align=center;verticalAlign=middle;horizontal=1;spacingTop=-2;fillColor=#CCE2FF;strokeWidth=0.2;" parent="1" vertex="1">
          <mxGeometry x="-614.87" y="1836.19" width="44" height="20" as="geometry" />
        </mxCell>
        <mxCell id="lNjEDPmtAGZLamaPp14r-447" value="&lt;span style=&quot;font-size: 12px;&quot;&gt;0&lt;/span&gt;" style="rounded=1;whiteSpace=wrap;html=1;fontFamily=Times New Roman;fontSize=2;strokeColor=#000000;rotation=0;container=0;fillColor=#CCE2FF;strokeWidth=0.2;" parent="1" vertex="1">
          <mxGeometry x="-791.75" y="1875.37" width="44" height="20" as="geometry" />
        </mxCell>
        <mxCell id="lNjEDPmtAGZLamaPp14r-448" value="&lt;font style=&quot;font-size: 12px;&quot;&gt;1&lt;/font&gt;" style="rounded=1;whiteSpace=wrap;html=1;fontFamily=Times New Roman;fontSize=2;strokeColor=#000000;rotation=0;container=0;fillColor=#CCE2FF;strokeWidth=0.2;" parent="1" vertex="1">
          <mxGeometry x="-734.62" y="1875.37" width="44" height="20" as="geometry" />
        </mxCell>
        <mxCell id="lNjEDPmtAGZLamaPp14r-449" value="&lt;font style=&quot;font-size: 12px;&quot;&gt;2&lt;/font&gt;" style="rounded=1;whiteSpace=wrap;html=1;fontFamily=Times New Roman;fontSize=2;strokeColor=#000000;rotation=0;container=0;fillColor=#CCE2FF;strokeWidth=0.2;" parent="1" vertex="1">
          <mxGeometry x="-673" y="1875.37" width="44" height="20" as="geometry" />
        </mxCell>
        <mxCell id="lNjEDPmtAGZLamaPp14r-450" value="&lt;font style=&quot;font-size: 12px;&quot;&gt;4&lt;/font&gt;" style="rounded=1;whiteSpace=wrap;html=1;fontFamily=Times New Roman;fontSize=2;strokeColor=#000000;rotation=0;container=0;fillColor=#CCE2FF;strokeWidth=0.2;" parent="1" vertex="1">
          <mxGeometry x="-555.75" y="1875.37" width="44" height="20" as="geometry" />
        </mxCell>
        <mxCell id="lNjEDPmtAGZLamaPp14r-451" value="&lt;font style=&quot;font-size: 12px;&quot;&gt;5&lt;/font&gt;" style="rounded=1;whiteSpace=wrap;html=1;fontFamily=Times New Roman;fontSize=2;strokeColor=#000000;rotation=0;container=0;fillColor=#CCE2FF;strokeWidth=0.2;" parent="1" vertex="1">
          <mxGeometry x="-491.75" y="1875.37" width="44" height="20" as="geometry" />
        </mxCell>
        <mxCell id="lNjEDPmtAGZLamaPp14r-452" value="&lt;font style=&quot;font-size: 12px;&quot;&gt;3&lt;/font&gt;" style="rounded=1;whiteSpace=wrap;html=1;fontFamily=Times New Roman;fontSize=2;strokeColor=#000000;rotation=0;container=0;fillColor=#CCE2FF;strokeWidth=0.2;" parent="1" vertex="1">
          <mxGeometry x="-614.87" y="1875.37" width="44" height="20" as="geometry" />
        </mxCell>
        <mxCell id="lNjEDPmtAGZLamaPp14r-453" value="&lt;span style=&quot;font-size: 12px;&quot;&gt;en&lt;/span&gt;" style="rounded=1;whiteSpace=wrap;html=1;fontFamily=Times New Roman;fontSize=2;strokeColor=#000000;rotation=0;container=0;strokeWidth=0.2;fillColor=#CCE2FF;shadow=0;glass=0;" parent="1" vertex="1">
          <mxGeometry x="-791.75" y="1918.37" width="44" height="20" as="geometry" />
        </mxCell>
        <mxCell id="lNjEDPmtAGZLamaPp14r-454" value="&lt;font style=&quot;font-size: 12px;&quot;&gt;en&lt;/font&gt;" style="rounded=1;whiteSpace=wrap;html=1;fontFamily=Times New Roman;fontSize=2;strokeColor=#000000;rotation=0;container=0;strokeWidth=0.2;fillColor=#CCE2FF;shadow=0;glass=0;" parent="1" vertex="1">
          <mxGeometry x="-734.62" y="1918.37" width="44" height="20" as="geometry" />
        </mxCell>
        <mxCell id="lNjEDPmtAGZLamaPp14r-455" value="&lt;font style=&quot;font-size: 12px;&quot;&gt;en&lt;/font&gt;" style="rounded=1;whiteSpace=wrap;html=1;fontFamily=Times New Roman;fontSize=2;strokeColor=#000000;rotation=0;container=0;strokeWidth=0.2;fillColor=#CCE2FF;shadow=0;glass=0;" parent="1" vertex="1">
          <mxGeometry x="-673.5" y="1918.37" width="44" height="20" as="geometry" />
        </mxCell>
        <mxCell id="lNjEDPmtAGZLamaPp14r-456" value="&lt;font style=&quot;font-size: 12px;&quot;&gt;en&lt;/font&gt;" style="rounded=1;whiteSpace=wrap;html=1;fontFamily=Times New Roman;fontSize=2;strokeColor=#000000;rotation=0;container=0;strokeWidth=0.2;fillColor=#CCE2FF;shadow=0;glass=0;" parent="1" vertex="1">
          <mxGeometry x="-554.74" y="1918.37" width="44" height="20" as="geometry" />
        </mxCell>
        <mxCell id="lNjEDPmtAGZLamaPp14r-457" value="&lt;font style=&quot;font-size: 12px;&quot;&gt;en&lt;/font&gt;" style="rounded=1;whiteSpace=wrap;html=1;fontFamily=Times New Roman;fontSize=2;strokeColor=#000000;rotation=0;container=0;strokeWidth=0.2;fillColor=#CCE2FF;shadow=0;glass=0;" parent="1" vertex="1">
          <mxGeometry x="-491.75" y="1918.37" width="44" height="20" as="geometry" />
        </mxCell>
        <mxCell id="lNjEDPmtAGZLamaPp14r-458" value="&lt;span style=&quot;font-size: 12px;&quot;&gt;en&lt;/span&gt;" style="rounded=1;whiteSpace=wrap;html=1;fontFamily=Times New Roman;fontSize=2;strokeColor=#000000;rotation=0;container=0;strokeWidth=0.2;fillColor=#CCE2FF;shadow=0;glass=0;" parent="1" vertex="1">
          <mxGeometry x="-614.87" y="1918.37" width="44" height="20" as="geometry" />
        </mxCell>
        <mxCell id="lNjEDPmtAGZLamaPp14r-459" value="" style="shape=cross;whiteSpace=wrap;html=1;size=0.17183098591549423;fillColor=#000000;strokeColor=#000000;" parent="1" vertex="1">
          <mxGeometry x="-773.7500000000001" y="1860.37" width="10" height="10" as="geometry" />
        </mxCell>
        <mxCell id="lNjEDPmtAGZLamaPp14r-460" value="" style="shape=cross;whiteSpace=wrap;html=1;size=0.17183098591549423;fillColor=#000000;strokeColor=#000000;" parent="1" vertex="1">
          <mxGeometry x="-715.7500000000001" y="1861.19" width="10" height="10" as="geometry" />
        </mxCell>
        <mxCell id="lNjEDPmtAGZLamaPp14r-461" value="" style="shape=cross;whiteSpace=wrap;html=1;size=0.17183098591549423;fillColor=#000000;strokeColor=#000000;" parent="1" vertex="1">
          <mxGeometry x="-656.0000000000001" y="1860.37" width="10" height="10" as="geometry" />
        </mxCell>
        <mxCell id="lNjEDPmtAGZLamaPp14r-462" value="" style="shape=cross;whiteSpace=wrap;html=1;size=0.17183098591549423;fillColor=#000000;strokeColor=#000000;" parent="1" vertex="1">
          <mxGeometry x="-597.7400000000001" y="1861.19" width="10" height="10" as="geometry" />
        </mxCell>
        <mxCell id="lNjEDPmtAGZLamaPp14r-463" value="" style="shape=cross;whiteSpace=wrap;html=1;size=0.17183098591549423;fillColor=#000000;strokeColor=#000000;" parent="1" vertex="1">
          <mxGeometry x="-537.7400000000001" y="1861.19" width="10" height="10" as="geometry" />
        </mxCell>
        <mxCell id="lNjEDPmtAGZLamaPp14r-464" value="" style="shape=cross;whiteSpace=wrap;html=1;size=0.17183098591549423;fillColor=#000000;strokeColor=#000000;" parent="1" vertex="1">
          <mxGeometry x="-474.7500000000001" y="1860.37" width="10" height="10" as="geometry" />
        </mxCell>
        <mxCell id="lNjEDPmtAGZLamaPp14r-465" value="" style="shape=flexArrow;endArrow=classic;html=1;rounded=0;width=1.8749999999999998;endSize=1.4386363636363635;endWidth=4.187983069562017;fillColor=#000000;strokeColor=#000000;" parent="1" edge="1">
          <mxGeometry width="50" height="50" relative="1" as="geometry">
            <mxPoint x="-1297.95" y="1828.19" as="sourcePoint" />
            <mxPoint x="-1297.95" y="1811.37" as="targetPoint" />
          </mxGeometry>
        </mxCell>
        <mxCell id="lNjEDPmtAGZLamaPp14r-466" value="" style="shape=flexArrow;endArrow=classic;html=1;rounded=0;width=1.8749999999999998;endSize=1.4386363636363635;endWidth=4.187983069562017;fillColor=#000000;strokeColor=#000000;" parent="1" edge="1">
          <mxGeometry width="50" height="50" relative="1" as="geometry">
            <mxPoint x="-1254.03" y="1829.19" as="sourcePoint" />
            <mxPoint x="-1254.03" y="1812.37" as="targetPoint" />
          </mxGeometry>
        </mxCell>
        <mxCell id="lNjEDPmtAGZLamaPp14r-467" value="" style="shape=flexArrow;endArrow=classic;html=1;rounded=0;width=1.8749999999999998;endSize=1.4386363636363635;endWidth=4.187983069562017;fillColor=#000000;strokeColor=#000000;" parent="1" edge="1">
          <mxGeometry width="50" height="50" relative="1" as="geometry">
            <mxPoint x="-1215.03" y="1829.19" as="sourcePoint" />
            <mxPoint x="-1215.03" y="1812.37" as="targetPoint" />
          </mxGeometry>
        </mxCell>
        <mxCell id="lNjEDPmtAGZLamaPp14r-468" value="" style="shape=flexArrow;endArrow=classic;html=1;rounded=0;width=1.8749999999999998;endSize=1.4386363636363635;endWidth=4.187983069562017;fillColor=#000000;strokeColor=#000000;" parent="1" edge="1">
          <mxGeometry width="50" height="50" relative="1" as="geometry">
            <mxPoint x="-1170.58" y="1829.37" as="sourcePoint" />
            <mxPoint x="-1170.58" y="1812.5500000000002" as="targetPoint" />
          </mxGeometry>
        </mxCell>
        <mxCell id="lNjEDPmtAGZLamaPp14r-469" value="" style="shape=flexArrow;endArrow=classic;html=1;rounded=0;width=1.8749999999999998;endSize=1.4386363636363635;endWidth=4.187983069562017;fillColor=#000000;strokeColor=#000000;" parent="1" edge="1">
          <mxGeometry width="50" height="50" relative="1" as="geometry">
            <mxPoint x="-1126.6599999999999" y="1830.37" as="sourcePoint" />
            <mxPoint x="-1126.6599999999999" y="1813.5500000000002" as="targetPoint" />
          </mxGeometry>
        </mxCell>
        <mxCell id="lNjEDPmtAGZLamaPp14r-470" value="" style="shape=flexArrow;endArrow=classic;html=1;rounded=0;width=1.8749999999999998;endSize=1.4386363636363635;endWidth=4.187983069562017;fillColor=#000000;strokeColor=#000000;" parent="1" edge="1">
          <mxGeometry width="50" height="50" relative="1" as="geometry">
            <mxPoint x="-1083.6599999999999" y="1830.37" as="sourcePoint" />
            <mxPoint x="-1083.6599999999999" y="1813.5500000000002" as="targetPoint" />
          </mxGeometry>
        </mxCell>
        <mxCell id="lNjEDPmtAGZLamaPp14r-471" value="" style="shape=flexArrow;endArrow=classic;html=1;rounded=0;width=1.8749999999999998;endSize=1.4386363636363635;endWidth=4.187983069562017;fillColor=#000000;strokeColor=#000000;" parent="1" edge="1">
          <mxGeometry width="50" height="50" relative="1" as="geometry">
            <mxPoint x="-1039.6599999999999" y="1830.37" as="sourcePoint" />
            <mxPoint x="-1039.6599999999999" y="1813.5500000000002" as="targetPoint" />
          </mxGeometry>
        </mxCell>
        <mxCell id="lNjEDPmtAGZLamaPp14r-472" value="" style="shape=flexArrow;endArrow=classic;html=1;rounded=0;width=1.8749999999999998;endSize=1.4386363636363635;endWidth=4.187983069562017;fillColor=#000000;strokeColor=#000000;" parent="1" edge="1">
          <mxGeometry width="50" height="50" relative="1" as="geometry">
            <mxPoint x="-997.1299999999999" y="1830.37" as="sourcePoint" />
            <mxPoint x="-997.1299999999999" y="1813.5500000000002" as="targetPoint" />
          </mxGeometry>
        </mxCell>
        <mxCell id="lNjEDPmtAGZLamaPp14r-473" value="" style="shape=flexArrow;endArrow=classic;html=1;rounded=0;width=1.8749999999999998;endSize=1.4386363636363635;endWidth=4.187983069562017;fillColor=#000000;strokeColor=#000000;" parent="1" edge="1">
          <mxGeometry width="50" height="50" relative="1" as="geometry">
            <mxPoint x="-953.2099999999998" y="1830.37" as="sourcePoint" />
            <mxPoint x="-953.2099999999998" y="1813.5500000000002" as="targetPoint" />
          </mxGeometry>
        </mxCell>
        <mxCell id="lNjEDPmtAGZLamaPp14r-474" value="" style="shape=flexArrow;endArrow=classic;html=1;rounded=0;width=1.8749999999999998;endSize=1.4386363636363635;endWidth=4.187983069562017;fillColor=#000000;strokeColor=#000000;" parent="1" edge="1">
          <mxGeometry width="50" height="50" relative="1" as="geometry">
            <mxPoint x="-910.2099999999998" y="1830.37" as="sourcePoint" />
            <mxPoint x="-910.2099999999998" y="1813.5500000000002" as="targetPoint" />
          </mxGeometry>
        </mxCell>
        <mxCell id="lNjEDPmtAGZLamaPp14r-475" value="" style="shape=flexArrow;endArrow=classic;html=1;rounded=0;width=1.8749999999999998;endSize=1.4386363636363635;endWidth=4.187983069562017;fillColor=#000000;strokeColor=#000000;" parent="1" edge="1">
          <mxGeometry width="50" height="50" relative="1" as="geometry">
            <mxPoint x="-866.2099999999998" y="1830.37" as="sourcePoint" />
            <mxPoint x="-866.2099999999998" y="1813.5500000000002" as="targetPoint" />
          </mxGeometry>
        </mxCell>
        <mxCell id="lNjEDPmtAGZLamaPp14r-476" value="" style="shape=flexArrow;endArrow=classic;html=1;rounded=0;width=1.8749999999999998;endSize=1.4386363636363635;endWidth=4.187983069562017;fillColor=#000000;strokeColor=#000000;" parent="1" edge="1">
          <mxGeometry width="50" height="50" relative="1" as="geometry">
            <mxPoint x="-706.7499999999998" y="1831.19" as="sourcePoint" />
            <mxPoint x="-706.7499999999998" y="1814.37" as="targetPoint" />
          </mxGeometry>
        </mxCell>
        <mxCell id="lNjEDPmtAGZLamaPp14r-477" value="" style="shape=flexArrow;endArrow=classic;html=1;rounded=0;width=1.8749999999999998;endSize=1.4386363636363635;endWidth=4.187983069562017;fillColor=#000000;strokeColor=#000000;" parent="1" edge="1">
          <mxGeometry width="50" height="50" relative="1" as="geometry">
            <mxPoint x="-647.1699999999998" y="1831.19" as="sourcePoint" />
            <mxPoint x="-647.1699999999998" y="1814.37" as="targetPoint" />
          </mxGeometry>
        </mxCell>
        <mxCell id="lNjEDPmtAGZLamaPp14r-478" value="" style="shape=flexArrow;endArrow=classic;html=1;rounded=0;width=1.8749999999999998;endSize=1.4386363636363635;endWidth=4.187983069562017;fillColor=#000000;strokeColor=#000000;" parent="1" edge="1">
          <mxGeometry width="50" height="50" relative="1" as="geometry">
            <mxPoint x="-592.8399999999998" y="1831.19" as="sourcePoint" />
            <mxPoint x="-592.8399999999998" y="1814.37" as="targetPoint" />
          </mxGeometry>
        </mxCell>
        <mxCell id="lNjEDPmtAGZLamaPp14r-479" value="" style="shape=flexArrow;endArrow=classic;html=1;rounded=0;width=1.8749999999999998;endSize=1.4386363636363635;endWidth=4.187983069562017;fillColor=#000000;strokeColor=#000000;" parent="1" edge="1">
          <mxGeometry width="50" height="50" relative="1" as="geometry">
            <mxPoint x="-532.8399999999997" y="1831.19" as="sourcePoint" />
            <mxPoint x="-532.8399999999997" y="1814.37" as="targetPoint" />
          </mxGeometry>
        </mxCell>
        <mxCell id="lNjEDPmtAGZLamaPp14r-480" value="" style="shape=flexArrow;endArrow=classic;html=1;rounded=0;width=1.8749999999999998;endSize=1.4386363636363635;endWidth=4.187983069562017;fillColor=#000000;strokeColor=#000000;" parent="1" edge="1">
          <mxGeometry width="50" height="50" relative="1" as="geometry">
            <mxPoint x="-469.8499999999997" y="1831.19" as="sourcePoint" />
            <mxPoint x="-469.8499999999997" y="1814.37" as="targetPoint" />
          </mxGeometry>
        </mxCell>
        <mxCell id="lNjEDPmtAGZLamaPp14r-481" value="" style="shape=flexArrow;endArrow=classic;html=1;rounded=0;width=1.8749999999999998;endSize=1.4386363636363635;endWidth=4.187983069562017;fillColor=#000000;strokeColor=#000000;" parent="1" edge="1">
          <mxGeometry width="50" height="50" relative="1" as="geometry">
            <mxPoint x="-768.9599999999998" y="1831.19" as="sourcePoint" />
            <mxPoint x="-768.9599999999998" y="1814.37" as="targetPoint" />
          </mxGeometry>
        </mxCell>
        <mxCell id="lNjEDPmtAGZLamaPp14r-482" value="&lt;font style=&quot;font-size: 12px;&quot;&gt;[s]&lt;/font&gt;" style="rounded=1;whiteSpace=wrap;html=1;fontFamily=Times New Roman;fontSize=2;strokeColor=#000000;rotation=0;container=0;align=center;verticalAlign=middle;horizontal=1;spacingTop=-2;fillColor=#CCE2FF;strokeWidth=0.2;" parent="1" vertex="1">
          <mxGeometry x="-791.62" y="1836.19" width="44" height="20" as="geometry" />
        </mxCell>
        <mxCell id="lNjEDPmtAGZLamaPp14r-483" value="&lt;font style=&quot;font-size: 12px;&quot;&gt;disease&lt;/font&gt;" style="rounded=1;whiteSpace=wrap;html=1;fontFamily=Times New Roman;fontSize=2;strokeColor=#000000;rotation=0;container=0;align=center;verticalAlign=middle;horizontal=1;spacingTop=-2;fillColor=#CCE2FF;strokeWidth=0.2;" parent="1" vertex="1">
          <mxGeometry x="-732.75" y="1836.37" width="44" height="20" as="geometry" />
        </mxCell>
        <mxCell id="lNjEDPmtAGZLamaPp14r-484" value="&lt;font style=&quot;font-size: 12px;&quot;&gt;is&lt;/font&gt;" style="rounded=1;whiteSpace=wrap;html=1;fontFamily=Times New Roman;fontSize=2;strokeColor=#000000;rotation=0;container=0;align=center;verticalAlign=middle;horizontal=1;spacingTop=-2;fillColor=#CCE2FF;strokeWidth=0.2;" parent="1" vertex="1">
          <mxGeometry x="-673" y="1836.19" width="44" height="20" as="geometry" />
        </mxCell>
        <mxCell id="lNjEDPmtAGZLamaPp14r-485" value="&lt;font style=&quot;font-size: 12px;&quot;&gt;common&lt;/font&gt;" style="rounded=1;whiteSpace=wrap;html=1;fontFamily=Times New Roman;fontSize=2;strokeColor=#000000;rotation=0;container=0;align=center;verticalAlign=middle;horizontal=1;spacingTop=-2;fillColor=#CCE2FF;strokeWidth=0.2;" parent="1" vertex="1">
          <mxGeometry x="-554.74" y="1836.19" width="44" height="20" as="geometry" />
        </mxCell>
        <mxCell id="lNjEDPmtAGZLamaPp14r-486" value="&lt;font style=&quot;font-size: 12px;&quot;&gt;enemy&lt;/font&gt;" style="rounded=1;whiteSpace=wrap;html=1;fontFamily=Times New Roman;fontSize=2;strokeColor=#000000;rotation=0;container=0;align=center;verticalAlign=middle;horizontal=1;spacingTop=-2;fillColor=#CCE2FF;strokeWidth=0.2;" parent="1" vertex="1">
          <mxGeometry x="-491.75" y="1835.19" width="44" height="20" as="geometry" />
        </mxCell>
        <mxCell id="lNjEDPmtAGZLamaPp14r-487" value="" style="shape=cross;whiteSpace=wrap;html=1;size=0.17183098591549423;fillColor=#000000;strokeColor=#000000;" parent="1" vertex="1">
          <mxGeometry x="-774.2500000000001" y="1901.37" width="10" height="10" as="geometry" />
        </mxCell>
        <mxCell id="lNjEDPmtAGZLamaPp14r-488" value="" style="shape=cross;whiteSpace=wrap;html=1;size=0.17183098591549423;fillColor=#000000;strokeColor=#000000;" parent="1" vertex="1">
          <mxGeometry x="-716.2500000000001" y="1901.37" width="10" height="10" as="geometry" />
        </mxCell>
        <mxCell id="lNjEDPmtAGZLamaPp14r-489" value="" style="shape=cross;whiteSpace=wrap;html=1;size=0.17183098591549423;fillColor=#000000;strokeColor=#000000;" parent="1" vertex="1">
          <mxGeometry x="-656.5000000000001" y="1901.37" width="10" height="10" as="geometry" />
        </mxCell>
        <mxCell id="lNjEDPmtAGZLamaPp14r-490" value="" style="shape=cross;whiteSpace=wrap;html=1;size=0.17183098591549423;fillColor=#000000;strokeColor=#000000;" parent="1" vertex="1">
          <mxGeometry x="-598.2400000000001" y="1901.37" width="10" height="10" as="geometry" />
        </mxCell>
        <mxCell id="lNjEDPmtAGZLamaPp14r-491" value="" style="shape=cross;whiteSpace=wrap;html=1;size=0.17183098591549423;fillColor=#000000;strokeColor=#000000;" parent="1" vertex="1">
          <mxGeometry x="-538.2400000000001" y="1901.37" width="10" height="10" as="geometry" />
        </mxCell>
        <mxCell id="lNjEDPmtAGZLamaPp14r-492" value="" style="shape=cross;whiteSpace=wrap;html=1;size=0.17183098591549423;fillColor=#000000;strokeColor=#000000;" parent="1" vertex="1">
          <mxGeometry x="-475.2500000000001" y="1901.37" width="10" height="10" as="geometry" />
        </mxCell>
        <mxCell id="lNjEDPmtAGZLamaPp14r-493" value="" style="shape=flexArrow;endArrow=classic;html=1;rounded=0;width=1.8749999999999998;endSize=1.4386363636363635;endWidth=4.187983069562017;fillColor=#000000;strokeColor=#000000;" parent="1" edge="1">
          <mxGeometry width="50" height="50" relative="1" as="geometry">
            <mxPoint x="-710.1999999999998" y="1767.37" as="sourcePoint" />
            <mxPoint x="-710.1999999999998" y="1750.5500000000002" as="targetPoint" />
          </mxGeometry>
        </mxCell>
        <mxCell id="lNjEDPmtAGZLamaPp14r-494" value="" style="shape=flexArrow;endArrow=classic;html=1;rounded=0;width=1.8749999999999998;endSize=1.4386363636363635;endWidth=4.187983069562017;fillColor=#000000;strokeColor=#000000;" parent="1" edge="1">
          <mxGeometry width="50" height="50" relative="1" as="geometry">
            <mxPoint x="-651.6199999999999" y="1767.37" as="sourcePoint" />
            <mxPoint x="-651.6199999999999" y="1750.5500000000002" as="targetPoint" />
          </mxGeometry>
        </mxCell>
        <mxCell id="lNjEDPmtAGZLamaPp14r-495" value="" style="shape=flexArrow;endArrow=classic;html=1;rounded=0;width=1.8749999999999998;endSize=1.4386363636363635;endWidth=4.187983069562017;fillColor=#000000;strokeColor=#000000;" parent="1" edge="1">
          <mxGeometry width="50" height="50" relative="1" as="geometry">
            <mxPoint x="-592.2899999999998" y="1767.37" as="sourcePoint" />
            <mxPoint x="-592.2899999999998" y="1750.5500000000002" as="targetPoint" />
          </mxGeometry>
        </mxCell>
        <mxCell id="lNjEDPmtAGZLamaPp14r-496" value="" style="shape=flexArrow;endArrow=classic;html=1;rounded=0;width=1.8749999999999998;endSize=1.4386363636363635;endWidth=4.187983069562017;fillColor=#000000;strokeColor=#000000;" parent="1" edge="1">
          <mxGeometry width="50" height="50" relative="1" as="geometry">
            <mxPoint x="-529.2899999999997" y="1767.37" as="sourcePoint" />
            <mxPoint x="-529.2899999999997" y="1750.5500000000002" as="targetPoint" />
          </mxGeometry>
        </mxCell>
        <mxCell id="lNjEDPmtAGZLamaPp14r-497" value="" style="shape=flexArrow;endArrow=classic;html=1;rounded=0;width=1.8749999999999998;endSize=1.4386363636363635;endWidth=4.187983069562017;fillColor=#000000;strokeColor=#000000;" parent="1" edge="1">
          <mxGeometry width="50" height="50" relative="1" as="geometry">
            <mxPoint x="-469.2999999999997" y="1767.37" as="sourcePoint" />
            <mxPoint x="-469.2999999999997" y="1750.5500000000002" as="targetPoint" />
          </mxGeometry>
        </mxCell>
        <mxCell id="lNjEDPmtAGZLamaPp14r-498" value="" style="shape=flexArrow;endArrow=classic;html=1;rounded=0;width=1.8749999999999998;endSize=1.4386363636363635;endWidth=4.187983069562017;fillColor=#000000;strokeColor=#000000;" parent="1" edge="1">
          <mxGeometry width="50" height="50" relative="1" as="geometry">
            <mxPoint x="-769.4099999999999" y="1767.37" as="sourcePoint" />
            <mxPoint x="-769.4099999999999" y="1750.5500000000002" as="targetPoint" />
          </mxGeometry>
        </mxCell>
        <mxCell id="lNjEDPmtAGZLamaPp14r-499" value="&lt;font style=&quot;font-size: 12px;&quot;&gt;the&lt;/font&gt;" style="rounded=1;whiteSpace=wrap;html=1;fontFamily=Times New Roman;fontSize=2;strokeColor=#000000;rotation=0;container=0;align=center;verticalAlign=middle;horizontal=1;spacingTop=-2;strokeWidth=0.2;fillColor=#CCE2FF;" parent="1" vertex="1">
          <mxGeometry x="-673.87" y="1726.37" width="44" height="20" as="geometry" />
        </mxCell>
        <mxCell id="lNjEDPmtAGZLamaPp14r-500" value="&lt;font style=&quot;font-size: 12px;&quot;&gt;[/s]&lt;/font&gt;" style="rounded=1;whiteSpace=wrap;html=1;fontFamily=Times New Roman;fontSize=2;strokeColor=#000000;rotation=0;container=0;align=center;verticalAlign=middle;horizontal=1;spacingTop=-2;strokeWidth=0.2;fillColor=#CCE2FF;" parent="1" vertex="1">
          <mxGeometry x="-492.25" y="1725.37" width="44" height="20" as="geometry" />
        </mxCell>
        <mxCell id="lNjEDPmtAGZLamaPp14r-501" value="&lt;font style=&quot;font-size: 12px;&quot;&gt;disease&lt;/font&gt;" style="rounded=1;whiteSpace=wrap;html=1;fontFamily=Times New Roman;fontSize=2;strokeColor=#000000;rotation=0;container=0;align=center;verticalAlign=middle;horizontal=1;spacingTop=-2;strokeWidth=0.2;fillColor=#CCE2FF;" parent="1" vertex="1">
          <mxGeometry x="-791.75" y="1726.5500000000002" width="44" height="20" as="geometry" />
        </mxCell>
        <mxCell id="lNjEDPmtAGZLamaPp14r-502" value="&lt;font style=&quot;font-size: 12px;&quot;&gt;is&lt;/font&gt;" style="rounded=1;whiteSpace=wrap;html=1;fontFamily=Times New Roman;fontSize=2;strokeColor=#000000;rotation=0;container=0;align=center;verticalAlign=middle;horizontal=1;spacingTop=-2;strokeWidth=0.2;fillColor=#CCE2FF;" parent="1" vertex="1">
          <mxGeometry x="-732" y="1726.37" width="44" height="20" as="geometry" />
        </mxCell>
        <mxCell id="lNjEDPmtAGZLamaPp14r-503" value="&lt;font style=&quot;font-size: 12px;&quot;&gt;common&lt;/font&gt;" style="rounded=1;whiteSpace=wrap;html=1;fontFamily=Times New Roman;fontSize=2;strokeColor=#000000;rotation=0;container=0;align=center;verticalAlign=middle;horizontal=1;spacingTop=-2;strokeWidth=0.2;fillColor=#CCE2FF;" parent="1" vertex="1">
          <mxGeometry x="-613.74" y="1726.37" width="44" height="20" as="geometry" />
        </mxCell>
        <mxCell id="lNjEDPmtAGZLamaPp14r-504" value="&lt;font style=&quot;font-size: 12px;&quot;&gt;enemy&lt;/font&gt;" style="rounded=1;whiteSpace=wrap;html=1;fontFamily=Times New Roman;fontSize=2;strokeColor=#000000;rotation=0;container=0;align=center;verticalAlign=middle;horizontal=1;spacingTop=-2;strokeWidth=0.2;fillColor=#CCE2FF;" parent="1" vertex="1">
          <mxGeometry x="-550.75" y="1725.37" width="44" height="20" as="geometry" />
        </mxCell>
        <mxCell id="lNjEDPmtAGZLamaPp14r-506" value="Text" style="text;html=1;align=center;verticalAlign=middle;resizable=0;points=[];autosize=1;strokeColor=none;fillColor=none;" parent="1" vertex="1">
          <mxGeometry x="-125" y="1358" width="50" height="30" as="geometry" />
        </mxCell>
      </root>
    </mxGraphModel>
  </diagram>
</mxfile>
